<?xml version="1.0" encoding="UTF-8"?>
<svg version="1.1" xmlns="http://www.w3.org/2000/svg" width="185" height="181">
<path d="M0 0 C2.375 0.5 2.375 0.5 5 2 C6.83094384 6.09432165 7.27804386 10.55129828 7 15 C7.66 15 8.32 15 9 15 C9.02578125 14.25234375 9.0515625 13.5046875 9.078125 12.734375 C9.54104847 4.69634026 9.54104847 4.69634026 11.8125 1.25 C14 0 14 0 16.0625 -0.0625 C18.94272957 1.51698073 19.67912737 2.98086256 21 6 C22.10307114 13.91707794 22.33166258 21.84327597 22.60546875 29.82421875 C22.66154297 31.29568359 22.66154297 31.29568359 22.71875 32.796875 C22.74904297 33.67698242 22.77933594 34.55708984 22.81054688 35.46386719 C23.00328534 38.04397956 23.49220037 40.46622342 24 43 C23.91802229 45.10762055 23.77009081 47.21352626 23.5625 49.3125 C23.46066406 50.38113281 23.35882813 51.44976562 23.25390625 52.55078125 C23.12822266 53.76314453 23.12822266 53.76314453 23 55 C32.75709944 55.35480362 39.58236666 53.69811434 47.8359375 48.33984375 C52.03077737 45.74267755 56.19874059 45.08582832 61 46 C67.72855865 48.85040373 73.87315391 51.77968101 78 58 C78 60.625 78 60.625 77 63 C75.69084721 64.03145371 74.35917857 65.03542166 73 66 C73 66.99 73 67.98 73 69 C70.525 69.495 70.525 69.495 68 70 C67.34 68.35 66.68 66.7 66 65 C64.35232753 65.28109113 62.70686855 65.57518526 61.0625 65.875 C60.14597656 66.03742188 59.22945312 66.19984375 58.28515625 66.3671875 C57.53105469 66.57601562 56.77695313 66.78484375 56 67 C55.67 67.66 55.34 68.32 55 69 C55.87011719 69.23783203 55.87011719 69.23783203 56.7578125 69.48046875 C62.25416947 71.12211993 66.01618185 72.81699095 70 77 C71.11111045 79.84722052 71.23164738 81.21239892 70.375 84.125 C67.61442274 87.88942353 64.62065508 88.86986264 60.125 89.8125 C54.97011633 90.27935739 50.80361037 89.29489975 46.5625 86.25 C44.55202396 83.3549145 44.68635139 81.45013471 45 78 C46.98 78 48.96 78 51 78 C51.66 79.65 52.32 81.3 53 83 C56.63 83 60.26 83 64 83 C63.48001422 78.95567662 63.48001422 78.95567662 60.85546875 77.65625 C59.53482422 77.08390625 59.53482422 77.08390625 58.1875 76.5 C54.44244007 74.76945013 51.65490615 73.25829391 49 70 C44.43304006 71.29811969 41.20203549 73.06188754 37.4375 75.9375 C34.04958327 78.50847227 30.6857959 80.87383564 27 83 C31.19018386 83.39827408 31.19018386 83.39827408 34.8125 81.625 C36.06987173 79.99913203 36.06987173 79.99913203 37 78 C38.98 78 40.96 78 43 78 C43 80.88964889 42.43944113 82.5419292 40.43359375 84.6328125 C35.6584033 88.5015578 32.15330459 90 26 90 C22.5 89.0625 22.5 89.0625 20 88 C20.845625 88.845625 21.69125 89.69125 22.5625 90.5625 C24.81741023 93.26966623 25.00436112 93.75577712 24.9375 97.5 C24.07452789 100.72176254 23.14595417 103.86772527 22 107 C18.32950146 106.40066583 18.06184271 106.08283238 15.640625 102.83984375 C14.83153445 101.54662524 14.03503297 100.2454621 13.25 98.9375 C12.83878906 98.27427734 12.42757812 97.61105469 12.00390625 96.92773438 C10.99175664 95.29181814 9.99442493 93.64675068 9 92 C6.36540952 92.87319571 3.74475845 93.7717041 1.125 94.6875 C0.37863281 94.93177734 -0.36773437 95.17605469 -1.13671875 95.42773438 C-5.67990191 96.97035772 -5.67990191 96.97035772 -8.5078125 100.70703125 C-8.75144531 101.84205078 -8.75144531 101.84205078 -9 103 C-9.99 103 -10.98 103 -12 103 C-12.66 101.68 -13.32 100.36 -14 99 C-14.98742187 99.01160156 -15.97484375 99.02320312 -16.9921875 99.03515625 C-18.27351563 99.04417969 -19.55484375 99.05320312 -20.875 99.0625 C-22.15117188 99.07410156 -23.42734375 99.08570312 -24.7421875 99.09765625 C-28 99 -28 99 -30 98 C-29.67 99.98 -29.34 101.96 -29 104 C-32.03767912 102.65285534 -33.99668202 101.17833297 -36.25 98.75 C-43.28874465 91.63700699 -47.7295569 88.715983 -57.86328125 87.55078125 C-62.25955127 86.77883346 -65.75660242 85.08165334 -69 82 C-70.20703125 79.8359375 -70.20703125 79.8359375 -71 78 C-66.23966942 79.85123967 -66.23966942 79.85123967 -64.1875 81.125 C-60.79086864 82.48365254 -57.63899603 82.12129987 -54 82 C-54.72316406 80.65808594 -54.72316406 80.65808594 -55.4609375 79.2890625 C-59.14228698 72.29847152 -62.10076099 65.96468837 -63 58 C-64.98 58 -66.96 58 -69 58 C-69 57.01 -69 56.02 -69 55 C-68.01 55 -67.02 55 -66 55 C-65.979375 53.80375 -65.95875 52.6075 -65.9375 51.375 C-65.92589844 50.70210937 -65.91429687 50.02921875 -65.90234375 49.3359375 C-65.95294092 46.90712165 -65.95294092 46.90712165 -66.4921875 44.1796875 C-67.05365278 40.66405107 -67.16856875 37.30907441 -67.1875 33.75 C-67.20167969 32.52796875 -67.21585938 31.3059375 -67.23046875 30.046875 C-67 27 -67 27 -65 25 C-61.17266834 24.46245342 -59.47825019 24.68564454 -56.21875 26.828125 C-55.3215625 27.62734375 -54.424375 28.4265625 -53.5 29.25 C-52.54996094 30.06726563 -51.59992187 30.88453125 -50.62109375 31.7265625 C-49.75613281 32.47679687 -48.89117187 33.22703125 -48 34 C-44.40197491 37.05312171 -44.40197491 37.05312171 -39.94140625 37.89453125 C-37.77732551 37.1571559 -37.77732551 37.1571559 -37.0234375 34.78515625 C-36.80945312 33.88667969 -36.59546875 32.98820312 -36.375 32.0625 C-35.18095238 27.18095238 -35.18095238 27.18095238 -33 25 C-30.375 25.375 -30.375 25.375 -28 26 C-28.875 30.75 -28.875 30.75 -30 33 C-30.66 33 -31.32 33 -32 33 C-32.33 35.97 -32.66 38.94 -33 42 C-31.741875 41.855625 -30.48375 41.71125 -29.1875 41.5625 C-28.47980469 41.48128906 -27.77210937 41.40007813 -27.04296875 41.31640625 C-24.80603607 41.02829265 -24.80603607 41.02829265 -22 40 C-18.6633822 32.15276926 -18.15657586 22.69114575 -17.17773438 14.29980469 C-16.5739075 9.52745366 -15.97235534 5.95488392 -13 2 C-11.02 2.33 -9.04 2.66 -7 3 C-6.01 7.95 -6.01 7.95 -5 13 C-4.80664062 12.22914062 -4.61328125 11.45828125 -4.4140625 10.6640625 C-4.15367188 9.66117188 -3.89328125 8.65828125 -3.625 7.625 C-3.36976562 6.62726562 -3.11453125 5.62953125 -2.8515625 4.6015625 C-2 2 -2 2 0 0 Z M-37 39 C-36 41 -36 41 -36 41 Z " fill="#C7D27D" transform="translate(90,20)"/>
<path d="M0 0 C1 2 1 2 0.4765625 3.99609375 C0.19554687 4.80175781 -0.08546875 5.60742188 -0.375 6.4375 C-2.13160047 11.93188961 -2.68359009 17.26097888 -3 23 C-2.34 23 -1.68 23 -1 23 C-1 22.34 -1 21.68 -1 21 C0.57421875 19.484375 0.57421875 19.484375 2.6875 17.75 C9.2900037 12.25062328 9.2900037 12.25062328 12.8125 4.625 C12.9053125 3.325625 12.9053125 3.325625 13 2 C15.55694972 5.83542457 15.04045639 7.65902533 14.625 12.1875 C14.51414063 13.45980469 14.40328125 14.73210937 14.2890625 16.04296875 C14.19367188 17.01878906 14.09828125 17.99460937 14 19 C23.75709944 19.35480362 30.58236666 17.69811434 38.8359375 12.33984375 C43.03077737 9.74267755 47.19874059 9.08582832 52 10 C58.72855865 12.85040373 64.87315391 15.77968101 69 22 C69 24.625 69 24.625 68 27 C66.69084721 28.03145371 65.35917857 29.03542166 64 30 C64 30.99 64 31.98 64 33 C62.35 33.33 60.7 33.66 59 34 C58.01 31.525 58.01 31.525 57 29 C55.35232753 29.28109113 53.70686855 29.57518526 52.0625 29.875 C51.14597656 30.03742188 50.22945313 30.19984375 49.28515625 30.3671875 C48.53105469 30.57601562 47.77695313 30.78484375 47 31 C46.67 31.66 46.34 32.32 46 33 C46.87011719 33.23783203 46.87011719 33.23783203 47.7578125 33.48046875 C53.25416947 35.12211993 57.01618185 36.81699095 61 41 C62.11111045 43.84722052 62.23164738 45.21239892 61.375 48.125 C58.61442274 51.88942353 55.62065508 52.86986264 51.125 53.8125 C45.97011633 54.27935739 41.80361037 53.29489975 37.5625 50.25 C35.55202396 47.3549145 35.68635139 45.45013471 36 42 C37.98 42 39.96 42 42 42 C42.99 44.475 42.99 44.475 44 47 C47.63 47 51.26 47 55 47 C54.48001422 42.95567662 54.48001422 42.95567662 51.85546875 41.65625 C50.53482422 41.08390625 50.53482422 41.08390625 49.1875 40.5 C45.44244007 38.76945013 42.65490615 37.25829391 40 34 C35.43304006 35.29811969 32.20203549 37.06188754 28.4375 39.9375 C25.04958327 42.50847227 21.6857959 44.87383564 18 47 C22.19018386 47.39827408 22.19018386 47.39827408 25.8125 45.625 C27.06987173 43.99913203 27.06987173 43.99913203 28 42 C29.98 42 31.96 42 34 42 C34 44.88964889 33.43944113 46.5419292 31.43359375 48.6328125 C26.6584033 52.5015578 23.15330459 54 17 54 C13.5 53.0625 13.5 53.0625 11 52 C11.845625 52.845625 12.69125 53.69125 13.5625 54.5625 C15.81741023 57.26966623 16.00436112 57.75577712 15.9375 61.5 C15.07452789 64.72176254 14.14595417 67.86772527 13 71 C9.32950146 70.40066583 9.06184271 70.08283238 6.640625 66.83984375 C5.83153445 65.54662524 5.03503297 64.2454621 4.25 62.9375 C3.83878906 62.27427734 3.42757812 61.61105469 3.00390625 60.92773438 C1.99175664 59.29181814 0.99442493 57.64675068 0 56 C-2.63459048 56.87319571 -5.25524155 57.7717041 -7.875 58.6875 C-8.62136719 58.93177734 -9.36773437 59.17605469 -10.13671875 59.42773438 C-14.67990191 60.97035772 -14.67990191 60.97035772 -17.5078125 64.70703125 C-17.75144531 65.84205078 -17.75144531 65.84205078 -18 67 C-18.99 67 -19.98 67 -21 67 C-21.48108275 65.58398286 -21.95978141 64.16715563 -22.4375 62.75 C-22.70433594 61.96109375 -22.97117187 61.1721875 -23.24609375 60.359375 C-24.85865845 55.31279947 -24.97248465 53.10525438 -23 48 C-23.556875 48.680625 -23.556875 48.680625 -24.125 49.375 C-28.03322678 52.76212988 -32.05379872 53.19836986 -37.0625 52.9375 C-40.78691339 52.46562862 -41.98885303 52.00824876 -45.125 49.6875 C-47 47 -47 47 -47 43 C-45.68 43 -44.36 43 -43 43 C-42.649375 43.825 -42.29875 44.65 -41.9375 45.5 C-41.298125 46.325 -40.65875 47.15 -40 48 C-36.30402903 48.4661091 -32.7071837 48.28323135 -29 48 C-28.67 46.02 -28.34 44.04 -28 42 C-28.59167969 41.82984375 -29.18335937 41.6596875 -29.79296875 41.484375 C-34.55819569 40.02293509 -38.4963313 38.72264799 -42 35 C-43 32.5625 -43 32.5625 -43 30 C-41.82383756 27.2762554 -41.04153901 25.50148174 -38.3125 24.1875 C-31.77571433 23.65749035 -27.7421687 23.49867762 -22 27 C-21.67 27.33 -21.34 27.66 -21 28 C-19.14227838 27.91015699 -17.28752015 27.75388139 -15.4375 27.5625 C-14.42558594 27.46066406 -13.41367188 27.35882813 -12.37109375 27.25390625 C-11.58863281 27.17011719 -10.80617187 27.08632812 -10 27 C-10.05220703 25.96552734 -10.05220703 25.96552734 -10.10546875 24.91015625 C-10.33777266 16.84589192 -9.61938228 9.95435633 -4.4375 3.5 C-2 1 -2 1 0 0 Z " fill="#C6D279" transform="translate(99,56)"/>
<path d="M0 0 C4.09974437 0.49754179 5.65760005 1.91373855 8.71875 4.640625 C9.66878906 5.45789062 10.61882813 6.27515625 11.59765625 7.1171875 C12.46261719 7.86742187 13.32757813 8.61765625 14.21875 9.390625 C17.81677509 12.44374671 17.81677509 12.44374671 22.27734375 13.28515625 C24.44142449 12.5477809 24.44142449 12.5477809 25.1953125 10.17578125 C25.40929688 9.27730469 25.62328125 8.37882812 25.84375 7.453125 C27.03779762 2.57157738 27.03779762 2.57157738 29.21875 0.390625 C31.84375 0.765625 31.84375 0.765625 34.21875 1.390625 C33.34375 6.140625 33.34375 6.140625 32.21875 8.390625 C31.55875 8.390625 30.89875 8.390625 30.21875 8.390625 C29.44762459 13.11376813 29.12110126 17.60583678 29.21875 22.390625 C30.20875 22.390625 31.19875 22.390625 32.21875 22.390625 C31.9617861 28.30079475 29.90223757 31.88285925 26.78515625 36.84765625 C22.73410611 43.42429874 19.82327572 49.5341048 21.21875 57.390625 C23.17864865 62.940338 26.40510657 67.99381763 30.90625 71.828125 C32.84156124 74.13206695 32.89352257 76.46357811 33.21875 79.390625 C30.18107088 78.04348034 28.22206798 76.56895797 25.96875 74.140625 C18.93000535 67.02763199 14.4891931 64.106608 4.35546875 62.94140625 C-0.04080127 62.16945846 -3.53785242 60.47227834 -6.78125 57.390625 C-7.98828125 55.2265625 -7.98828125 55.2265625 -8.78125 53.390625 C-4.02091942 55.24186467 -4.02091942 55.24186467 -1.96875 56.515625 C1.42788136 57.87427754 4.57975397 57.51192487 8.21875 57.390625 C7.49558594 56.04871094 7.49558594 56.04871094 6.7578125 54.6796875 C3.07646302 47.68909652 0.11798901 41.35531337 -0.78125 33.390625 C-2.76125 33.390625 -4.74125 33.390625 -6.78125 33.390625 C-6.78125 32.400625 -6.78125 31.410625 -6.78125 30.390625 C-5.79125 30.390625 -4.80125 30.390625 -3.78125 30.390625 C-3.760625 29.194375 -3.74 27.998125 -3.71875 26.765625 C-3.70714844 26.09273437 -3.69554687 25.41984375 -3.68359375 24.7265625 C-3.73419092 22.29774665 -3.73419092 22.29774665 -4.2734375 19.5703125 C-4.83490278 16.05467607 -4.94981875 12.69969941 -4.96875 9.140625 C-4.98292969 7.91859375 -4.99710938 6.6965625 -5.01171875 5.4375 C-4.70797037 1.42184351 -3.99627794 0.56127499 0 0 Z M25.21875 14.390625 C26.21875 16.390625 26.21875 16.390625 26.21875 16.390625 Z " fill="#C5CB78" transform="translate(27.78125,44.609375)"/>
<path d="M0 0 C1 2 1 2 0.4765625 3.99609375 C0.19554687 4.80175781 -0.08546875 5.60742188 -0.375 6.4375 C-2.13160047 11.93188961 -2.68359009 17.26097888 -3 23 C-2.34 23 -1.68 23 -1 23 C-1 22.34 -1 21.68 -1 21 C0.57421875 19.484375 0.57421875 19.484375 2.6875 17.75 C9.2900037 12.25062328 9.2900037 12.25062328 12.8125 4.625 C12.9053125 3.325625 12.9053125 3.325625 13 2 C15.27661245 5.41491868 15.19937002 5.86615195 14.4375 9.6875 C12.5309469 17.92524832 8.68668468 22.96397339 1.96484375 27.96875 C0 29 0 29 -4 29 C-3.505 34.94 -3.505 34.94 -3 41 C-7 40 -7 40 -8 39 C-8.495 39.99 -8.495 39.99 -9 41 C-9.99 41 -10.98 41 -12 41 C-11.05054252 38.55853792 -10.1015555 36.19182705 -8.875 33.875 C-7.78855727 31.89176146 -7.78855727 31.89176146 -8 29 C-10.01432266 29.50256112 -10.01432266 29.50256112 -12 31 C-12.46801432 32.67147972 -12.9322141 34.3441892 -13.37060547 36.02368164 C-14.45575614 39.43108842 -16.2955169 42.38297432 -18.125 45.4375 C-18.68380859 46.39172852 -18.68380859 46.39172852 -19.25390625 47.36523438 C-20.16234499 48.91423889 -21.08019297 50.45771891 -22 52 C-20.68 52 -19.36 52 -18 52 C-17.71125 51.236875 -17.4225 50.47375 -17.125 49.6875 C-16 47 -16 47 -14 44 C-11.1796875 43.70703125 -11.1796875 43.70703125 -7.875 43.8125 C-6.23144531 43.85310547 -6.23144531 43.85310547 -4.5546875 43.89453125 C-3.29011719 43.94673828 -3.29011719 43.94673828 -2 44 C-1.731875 45.134375 -1.46375 46.26875 -1.1875 47.4375 C-0.795625 48.613125 -0.40375 49.78875 0 51 C0.99 51.33 1.98 51.66 3 52 C2.76603516 51.09507813 2.76603516 51.09507813 2.52734375 50.171875 C2.23537109 48.97304687 2.23537109 48.97304687 1.9375 47.75 C1.74027344 46.96109375 1.54304688 46.1721875 1.33984375 45.359375 C0.98502733 42.89605178 1.23122456 41.34395868 2 39 C2.81567174 40.43570266 3.62742093 41.87363434 4.4375 43.3125 C5.11619141 44.51326172 5.11619141 44.51326172 5.80859375 45.73828125 C7 48 7 48 8 51 C8.99 51.33 9.98 51.66 11 52 C13.14472717 54.04723957 14.61583786 55.45952135 16 58 C15.91714461 62.63990197 14.58740755 66.66108603 13 71 C9.32950146 70.40066583 9.06184271 70.08283238 6.640625 66.83984375 C5.83153445 65.54662524 5.03503297 64.2454621 4.25 62.9375 C3.83878906 62.27427734 3.42757812 61.61105469 3.00390625 60.92773438 C1.99175664 59.29181814 0.99442493 57.64675068 0 56 C-2.63459048 56.87319571 -5.25524155 57.7717041 -7.875 58.6875 C-8.62136719 58.93177734 -9.36773437 59.17605469 -10.13671875 59.42773438 C-14.67990191 60.97035772 -14.67990191 60.97035772 -17.5078125 64.70703125 C-17.75144531 65.84205078 -17.75144531 65.84205078 -18 67 C-18.99 67 -19.98 67 -21 67 C-21.48108275 65.58398286 -21.95978141 64.16715563 -22.4375 62.75 C-22.70433594 61.96109375 -22.97117187 61.1721875 -23.24609375 60.359375 C-24.85865845 55.31279947 -24.97248465 53.10525438 -23 48 C-23.556875 48.680625 -23.556875 48.680625 -24.125 49.375 C-28.03322678 52.76212988 -32.05379872 53.19836986 -37.0625 52.9375 C-40.78691339 52.46562862 -41.98885303 52.00824876 -45.125 49.6875 C-47 47 -47 47 -47 43 C-45.68 43 -44.36 43 -43 43 C-42.649375 43.825 -42.29875 44.65 -41.9375 45.5 C-41.298125 46.325 -40.65875 47.15 -40 48 C-36.30402903 48.4661091 -32.7071837 48.28323135 -29 48 C-28.67 46.02 -28.34 44.04 -28 42 C-28.59167969 41.82984375 -29.18335937 41.6596875 -29.79296875 41.484375 C-34.55819569 40.02293509 -38.4963313 38.72264799 -42 35 C-43 32.5625 -43 32.5625 -43 30 C-41.82383756 27.2762554 -41.04153901 25.50148174 -38.3125 24.1875 C-31.77571433 23.65749035 -27.7421687 23.49867762 -22 27 C-21.67 27.33 -21.34 27.66 -21 28 C-19.14227838 27.91015699 -17.28752015 27.75388139 -15.4375 27.5625 C-14.42558594 27.46066406 -13.41367188 27.35882813 -12.37109375 27.25390625 C-11.58863281 27.17011719 -10.80617187 27.08632812 -10 27 C-10.05220703 25.96552734 -10.05220703 25.96552734 -10.10546875 24.91015625 C-10.33777266 16.84589192 -9.61938228 9.95435633 -4.4375 3.5 C-2 1 -2 1 0 0 Z " fill="#CFDA89" transform="translate(99,56)"/>
<path d="M0 0 C1.75501918 -0.01640205 3.5099761 -0.04347789 5.26464844 -0.08203125 C26.61570023 -0.54750442 44.46286216 5.26555847 60.91455078 19.35009766 C61.71376953 20.00494141 62.51298828 20.65978516 63.33642578 21.33447266 C77.91114469 33.73656266 90.24650661 51.9861416 92.11883545 71.47665405 C92.39135892 76.7277465 92.28317424 81.97097375 92.16455078 87.22509766 C92.14442289 88.79929327 92.12618341 90.37351421 92.10986328 91.94775391 C92.06643829 95.74917778 91.99777426 99.54934546 91.91455078 103.35009766 C90.59455078 103.02009766 89.27455078 102.69009766 87.91455078 102.35009766 C88.00994141 101.38072266 88.10533203 100.41134766 88.20361328 99.41259766 C90.34495053 74.96746138 84.34287245 52.53002298 68.47705078 33.53759766 C53.02399765 15.68050474 32.76763015 5.46219091 9.28955078 3.60009766 C-12.90365811 2.2346849 -35.74118704 9.19143068 -52.56591797 23.94775391 C-71.51617274 42.01660148 -81.21087848 63.32239178 -82.06689453 89.35644531 C-82.11056347 94.04855787 -81.65812328 98.69822222 -81.08544922 103.35009766 C-82.40544922 103.35009766 -83.72544922 103.35009766 -85.08544922 103.35009766 C-85.18586065 98.76438472 -85.25762689 94.17933968 -85.30517578 89.59277344 C-85.32503904 88.03927436 -85.35213943 86.48584743 -85.38720703 84.93261719 C-85.68345758 71.45321716 -83.84394072 59.6203755 -77.64794922 47.41259766 C-77.31504883 46.75565918 -76.98214844 46.0987207 -76.63916016 45.421875 C-64.87435712 23.48989356 -43.4514148 8.53251188 -20.08544922 1.35009766 C-13.61988772 -0.45750154 -6.67206785 0.04545507 0 0 Z " fill="#989D65" transform="translate(86.08544921875,-0.35009765625)"/>
<path d="M0 0 C0 0.66 0 1.32 0 2 C-1.65 1.67 -3.3 1.34 -5 1 C-5.33 2.65 -5.66 4.3 -6 6 C-4.35 5.67 -2.7 5.34 -1 5 C-1 5.66 -1 6.32 -1 7 C-1.66 7.66 -2.32 8.32 -3 9 C-1.73168307 9.81642254 -0.46024069 10.62799105 0.8125 11.4375 C1.52019531 11.88996094 2.22789063 12.34242187 2.95703125 12.80859375 C5.08134552 14.14086339 5.08134552 14.14086339 8 15 C8.33 13.35 8.66 11.7 9 10 C10.32 10 11.64 10 13 10 C14.125 14.75 14.125 14.75 13 17 C18.31411494 15.07608351 18.31411494 15.07608351 22 11 C22.02749478 8.93089407 22.02749478 8.93089407 21.625 6.8125 C21.41875 5.554375 21.2125 4.29625 21 3 C21.99 2.34 22.98 1.68 24 1 C24.66 1.33 25.32 1.66 26 2 C26.33 1.34 26.66 0.68 27 0 C27.89564057 5.67239027 25.50407775 8.82737218 22.6015625 13.421875 C18.5183636 19.99482932 15.60240921 26.13156383 17 34 C18.95989865 39.549713 22.18635657 44.60319263 26.6875 48.4375 C28.62281124 50.74144195 28.67477257 53.07295311 29 56 C25.96232088 54.65285534 24.00331798 53.17833297 21.75 50.75 C14.71125535 43.63700699 10.2704431 40.715983 0.13671875 39.55078125 C-4.25955127 38.77883346 -7.75660242 37.08165334 -11 34 C-12.20703125 31.8359375 -12.20703125 31.8359375 -13 30 C-8.23966942 31.85123967 -8.23966942 31.85123967 -6.1875 33.125 C-2.79086864 34.48365254 0.36100397 34.12129987 4 34 C3.27683594 32.65808594 3.27683594 32.65808594 2.5390625 31.2890625 C-1.14228698 24.29847152 -4.10076099 17.96468837 -5 10 C-6.98 10 -8.96 10 -11 10 C-11 9.01 -11 8.02 -11 7 C-10.01 7 -9.02 7 -8 7 C-8 5.02 -8 3.04 -8 1 C-4.93251126 -0.86240388 -3.40254489 -1.2151946 0 0 Z " fill="#272322" transform="translate(32,68)"/>
<path d="M0 0 C0.66 0 1.32 0 2 0 C2 3.63 2 7.26 2 11 C1.01 11.33 0.02 11.66 -1 12 C-1.33 12.66 -1.66 13.32 -2 14 C-2.433125 13.525625 -2.86625 13.05125 -3.3125 12.5625 C-6.46953419 9.6393202 -9.85436194 9.77156626 -13.99609375 9.85546875 C-16.78694091 10.05675792 -18.65491951 10.43661301 -21 12 C-22.34223614 14.80166093 -22.34223614 14.80166093 -22 18 C-18.68364154 22.45635668 -15.0339348 24.10040196 -10 26 C-9.34 26.33 -8.68 26.66 -8 27 C-7.95745644 28.99954746 -7.95919217 31.00041636 -8 33 C-9.73219928 34.73219928 -12.02026808 34.21291761 -14.375 34.25 C-15.35210937 34.27578125 -16.32921875 34.3015625 -17.3359375 34.328125 C-20 34 -20 34 -21.8515625 32.671875 C-23 31 -23 31 -23 28 C-24.32 28 -25.64 28 -27 28 C-25.40000111 33.20734683 -25.40000111 33.20734683 -21.375 36.5 C-15.81451354 37.32377577 -9.81984619 37.20615319 -5 34 C-4.18129815 30.43793339 -4.18129815 30.43793339 -4 27 C-3.67 27 -3.34 27 -3 27 C-2.04652905 31.86270183 -2.05276543 34.49702006 -4 39 C-3.74276031 41.02919843 -3.74276031 41.02919843 -3 43 C-2.65571859 44.66443961 -2.32118248 46.33094916 -2 48 C-4.43757413 48.02698422 -6.87484915 48.04683099 -9.3125 48.0625 C-10.00279297 48.07087891 -10.69308594 48.07925781 -11.40429688 48.08789062 C-14.5483025 48.10307906 -16.99420019 48.00193327 -20 47 C-20 46.34 -20 45.68 -20 45 C-20.8353125 44.7215625 -20.8353125 44.7215625 -21.6875 44.4375 C-26.27036784 41.58869026 -29.64419481 36.17671073 -31 31 C-31.88433087 24.06140393 -30.28524907 19.06754471 -27 13 C-26.61457031 12.23816406 -26.22914062 11.47632812 -25.83203125 10.69140625 C-22.83624289 5.25245068 -22.83624289 5.25245068 -18.6875 4 C-17.800625 4 -16.91375 4 -16 4 C-15.67 4.66 -15.34 5.32 -15 6 C-14.01 6 -13.02 6 -12 6 C-11.54625 5.484375 -11.0925 4.96875 -10.625 4.4375 C-10.08875 3.963125 -9.5525 3.48875 -9 3 C-6.3125 3.3125 -6.3125 3.3125 -4 4 C-3.67 3.34 -3.34 2.68 -3 2 C-3 2.99 -3 3.98 -3 5 C-2.34 5 -1.68 5 -1 5 C-0.67 3.35 -0.34 1.7 0 0 Z " fill="#CBD77E" transform="translate(79,71)"/>
<path d="M0 0 C3.51416163 1.53181404 4.02990307 3.57702188 5.4375 7.0625 C5.829375 8.01125 6.22125 8.96 6.625 9.9375 C6.893125 10.63875 7.16125 11.34 7.4375 12.0625 C7.1075 12.3925 6.7775 12.7225 6.4375 13.0625 C7.4275 13.7225 8.4175 14.3825 9.4375 15.0625 C10.125 18.6875 10.125 18.6875 10.4375 22.0625 C11.4275 21.7325 12.4175 21.4025 13.4375 21.0625 C14.7575 23.3725 16.0775 25.6825 17.4375 28.0625 C18.0975 28.0625 18.7575 28.0625 19.4375 28.0625 C19.7675 29.0525 20.0975 30.0425 20.4375 31.0625 C21.118125 31.5575 21.79875 32.0525 22.5 32.5625 C23.139375 33.0575 23.77875 33.5525 24.4375 34.0625 C24.4375 35.0525 24.4375 36.0425 24.4375 37.0625 C25.7575 37.3925 27.0775 37.7225 28.4375 38.0625 C28.4375 38.7225 28.4375 39.3825 28.4375 40.0625 C29.5203125 40.2171875 29.5203125 40.2171875 30.625 40.375 C33.71543421 41.13043947 35.85493841 42.21781315 38.4375 44.0625 C38.4375 44.7225 38.4375 45.3825 38.4375 46.0625 C39.4275 46.0625 40.4175 46.0625 41.4375 46.0625 C41.4375 47.0525 41.4375 48.0425 41.4375 49.0625 C40.7775 49.0625 40.1175 49.0625 39.4375 49.0625 C39.169375 49.866875 38.90125 50.67125 38.625 51.5 C38.233125 52.345625 37.84125 53.19125 37.4375 54.0625 C36.4475 54.3925 35.4575 54.7225 34.4375 55.0625 C34.1075 54.0725 33.7775 53.0825 33.4375 52.0625 C32.261875 51.9078125 32.261875 51.9078125 31.0625 51.75 C28.4375 51.0625 28.4375 51.0625 26.4375 48.0625 C24.38746045 46.87017387 24.38746045 46.87017387 22.4375 46.0625 C22.4375 45.0725 22.4375 44.0825 22.4375 43.0625 C21.695 42.959375 20.9525 42.85625 20.1875 42.75 C17.22027013 42.00819253 15.63197117 41.17569446 13.4375 39.0625 C13.4375 38.0725 13.4375 37.0825 13.4375 36.0625 C12.4475 36.0625 11.4575 36.0625 10.4375 36.0625 C9.10416667 33.39583333 7.77083333 30.72916667 6.4375 28.0625 C5.7775 28.0625 5.1175 28.0625 4.4375 28.0625 C4.4375 27.0725 4.4375 26.0825 4.4375 25.0625 C3.7775 25.0625 3.1175 25.0625 2.4375 25.0625 C2.4375 24.4025 2.4375 23.7425 2.4375 23.0625 C1.7775 23.0625 1.1175 23.0625 0.4375 23.0625 C0.7675 21.4125 1.0975 19.7625 1.4375 18.0625 C0.509375 17.9696875 0.509375 17.9696875 -0.4375 17.875 C-2.5625 17.0625 -2.5625 17.0625 -3.6875 14.8125 C-4.120625 13.45125 -4.120625 13.45125 -4.5625 12.0625 C-5.119375 10.7940625 -5.119375 10.7940625 -5.6875 9.5 C-6.5625 7.0625 -6.5625 7.0625 -6.5625 3.0625 C-4.37994783 0.7182773 -3.21721974 0.07846877 0 0 Z M-2.5625 4.0625 C-2.8925 4.7225 -3.2225 5.3825 -3.5625 6.0625 C-2.9025 6.0625 -2.2425 6.0625 -1.5625 6.0625 C-1.5625 6.7225 -1.5625 7.3825 -1.5625 8.0625 C-0.9025 7.7325 -0.2425 7.4025 0.4375 7.0625 C0.4375 6.0725 0.4375 5.0825 0.4375 4.0625 C-0.5525 4.0625 -1.5425 4.0625 -2.5625 4.0625 Z M10.4375 28.0625 C10.7675 28.7225 11.0975 29.3825 11.4375 30.0625 C11.7675 29.4025 12.0975 28.7425 12.4375 28.0625 C11.7775 28.0625 11.1175 28.0625 10.4375 28.0625 Z " fill="#A82E30" transform="translate(7.5625,105.9375)"/>
<path d="M0 0 C6.72879643 2.87686266 12.86292428 5.76934358 17 12 C17.0625 14.6875 17.0625 14.6875 16 17 C13.8125 18.5625 13.8125 18.5625 11 19 C10.0925 18.38125 9.185 17.7625 8.25 17.125 C4.02813916 14.36455253 0.91393705 14.35825449 -4 15 C-5.672233 15.65257873 -7.33927151 16.31867549 -9 17 C-12.90318972 17.48890056 -15.95831876 17.63049128 -19.375 15.5625 C-23.33503876 13.20533407 -27.46622925 13.25529971 -32 13 C-32 12.67 -32 12.34 -32 12 C-28.535 11.505 -28.535 11.505 -25 11 C-24.67 10.01 -24.34 9.02 -24 8 C-21.92578125 6.71875 -21.92578125 6.71875 -19.3125 5.5 C-16.41692679 4.14051811 -13.64540863 2.794337 -10.875 1.1875 C-7.01324446 -0.40757294 -4.04257834 -0.92084579 0 0 Z " fill="#C5D178" transform="translate(151,66)"/>
<path d="M0 0 C2.71677989 2.5130214 3.29803569 3.67714239 3.5 7.3125 C1.85 7.6425 0.2 7.9725 -1.5 8.3125 C-2.16 6.6625 -2.82 5.0125 -3.5 3.3125 C-5.14767247 3.59359113 -6.79313145 3.88768526 -8.4375 4.1875 C-9.35402344 4.34992188 -10.27054688 4.51234375 -11.21484375 4.6796875 C-11.96894531 4.88851562 -12.72304687 5.09734375 -13.5 5.3125 C-13.83 5.9725 -14.16 6.6325 -14.5 7.3125 C-13.91992188 7.47105469 -13.33984375 7.62960938 -12.7421875 7.79296875 C-7.24583053 9.43461993 -3.48381815 11.12949095 0.5 15.3125 C1.61111045 18.15972052 1.73164738 19.52489892 0.875 22.4375 C-1.88557726 26.20192353 -4.87934492 27.18236264 -9.375 28.125 C-14.52988367 28.59185739 -18.69638963 27.60739975 -22.9375 24.5625 C-24.94797604 21.6674145 -24.81364861 19.76263471 -24.5 16.3125 C-22.52 16.3125 -20.54 16.3125 -18.5 16.3125 C-17.84 17.9625 -17.18 19.6125 -16.5 21.3125 C-12.87 21.3125 -9.24 21.3125 -5.5 21.3125 C-6.01998578 17.26817662 -6.01998578 17.26817662 -8.64453125 15.96875 C-9.52496094 15.5871875 -10.40539062 15.205625 -11.3125 14.8125 C-18.52787209 11.41155814 -18.52787209 11.41155814 -20.5 8.3125 C-20.43410719 5.08375213 -20.09078311 3.12834335 -18.1875 0.5 C-12.97886576 -3.16533521 -5.44265446 -2.62413697 0 0 Z " fill="#262323" transform="translate(159.5,81.6875)"/>
<path d="M0 0 C1.32 0 2.64 0 4 0 C4 0.66 4 1.32 4 2 C6.31 2 8.62 2 11 2 C11 2.99 11 3.98 11 5 C9.36935236 6.05771739 7.69719127 7.05273046 6 8 C5.46375 8.556875 4.9275 9.11375 4.375 9.6875 C3 11 3 11 0 11 C-0.33 11.99 -0.66 12.98 -1 14 C-1.99 14 -2.98 14 -4 14 C-4 14.66 -4 15.32 -4 16 C-4.639375 16.12375 -5.27875 16.2475 -5.9375 16.375 C-6.618125 16.58125 -7.29875 16.7875 -8 17 C-8.33 17.66 -8.66 18.32 -9 19 C-12 18 -12 18 -13 17 C-13 17.99 -13 18.98 -13 20 C-13.99 20 -14.98 20 -16 20 C-16.33 20.66 -16.66 21.32 -17 22 C-19.3125 22.5625 -19.3125 22.5625 -22 23 C-22.7425 23.20625 -23.485 23.4125 -24.25 23.625 C-24.8275 23.74875 -25.405 23.8725 -26 24 C-26.33 23.67 -26.66 23.34 -27 23 C-27.391875 23.515625 -27.78375 24.03125 -28.1875 24.5625 C-30 26 -30 26 -32.5625 25.875 C-35 25 -35 25 -37 22 C-36.625 19.3125 -36.625 19.3125 -36 17 C-34.88625 16.87625 -33.7725 16.7525 -32.625 16.625 C-28.96896323 16.3534187 -28.96896323 16.3534187 -27 14 C-24.67724823 13.59952556 -22.34260643 13.2602896 -20 13 C-20 12.34 -20 11.68 -20 11 C-18.865625 10.62875 -17.73125 10.2575 -16.5625 9.875 C-12.21686858 8.27438487 -8.71070517 5.92053066 -4.98046875 3.20703125 C-3 2 -3 2 0 2 C0 1.34 0 0.68 0 0 Z M-2 5 C-1.67 5.99 -1.34 6.98 -1 8 C-0.01 7.67 0.98 7.34 2 7 C1.67 6.34 1.34 5.68 1 5 C0.01 5 -0.98 5 -2 5 Z M-10 12 C-9 14 -9 14 -9 14 Z M-9 14 C-8 16 -8 16 -8 16 Z M-26 17 C-26 17.99 -26 18.98 -26 20 C-25.34 20 -24.68 20 -24 20 C-24.33 19.01 -24.66 18.02 -25 17 C-25.33 17 -25.66 17 -26 17 Z M-33 19 C-32.67 20.32 -32.34 21.64 -32 23 C-31.67 22.34 -31.34 21.68 -31 21 C-30.34 21 -29.68 21 -29 21 C-29.33 20.34 -29.66 19.68 -30 19 C-30.99 19 -31.98 19 -33 19 Z " fill="#BA2A2D" transform="translate(143,144)"/>
<path d="M0 0 C3.66881155 0.70554068 6.70450534 2.27735506 10 4 C10 4.99 10 5.98 10 7 C7.03 7 4.06 7 1 7 C1 7.66 1 8.32 1 9 C3.31 9.33 5.62 9.66 8 10 C6.8905928 13.48670834 5.73662334 16.77484237 4 20 C3.34 20 2.68 20 2 20 C1.896875 20.5775 1.79375 21.155 1.6875 21.75 C0.88350079 24.38127015 -0.13067515 25.98688093 -2 28 C-2.99 28 -3.98 28 -5 28 C-5.33 29.65 -5.66 31.3 -6 33 C-7.485 33.495 -7.485 33.495 -9 34 C-9.495 36.475 -9.495 36.475 -10 39 C-13.6413205 39.33102914 -15.41472925 39.42019439 -18.4375 37.25 C-20 35 -20 35 -19.75 32.75 C-19.5025 32.1725 -19.255 31.595 -19 31 C-17.68 30.67 -16.36 30.34 -15 30 C-14.67 28.68 -14.34 27.36 -14 26 C-12.68 25.67 -11.36 25.34 -10 25 C-9.89365234 24.02933594 -9.89365234 24.02933594 -9.78515625 23.0390625 C-8.68142382 18.76690412 -6.5761017 15.21334792 -4.4375 11.375 C-3.59713734 9.86515268 -2.76224266 8.35224529 -1.93359375 6.8359375 C-1.3775647 5.83892822 -1.3775647 5.83892822 -0.81030273 4.82177734 C0.20319988 2.87546171 0.20319988 2.87546171 0 0 Z M2 12 C3 14 3 14 3 14 Z M-5 21 C-5 21.66 -5 22.32 -5 23 C-5.99 23.495 -5.99 23.495 -7 24 C-5.68 24.33 -4.36 24.66 -3 25 C-3 23.68 -3 22.36 -3 21 C-3.66 21 -4.32 21 -5 21 Z M-11 28 C-11 28.66 -11 29.32 -11 30 C-9.68 29.67 -8.36 29.34 -7 29 C-8.32 28.67 -9.64 28.34 -11 28 Z " fill="#A12F31" transform="translate(169,106)"/>
<path d="M0 0 C4.07572077 0.49027504 5.6073692 1.86511948 8.65234375 4.57421875 C11.82216365 7.32832456 14.92059294 9.97474463 18.40234375 12.32421875 C19.33046875 13.00484375 20.25859375 13.68546875 21.21484375 14.38671875 C21.21484375 15.04671875 21.21484375 15.70671875 21.21484375 16.38671875 C12.78368689 20.83043436 5.52364238 20.83354108 -3.78515625 20.38671875 C-4.9494906 16.67947818 -4.95247171 13.12907754 -4.97265625 9.26171875 C-4.98683594 8.02164063 -5.00101563 6.7815625 -5.015625 5.50390625 C-4.71547887 1.44430263 -4.04728001 0.56196455 0 0 Z " fill="#C4CF77" transform="translate(27.78515625,44.61328125)"/>
<path d="M0 0 C0.875 2.6875 0.875 2.6875 1 5 C0.01 5.33 -0.98 5.66 -2 6 C-2.495 5.175 -2.99 4.35 -3.5 3.5 C-5.88541667 0.61458333 -5.88541667 0.61458333 -9.9375 0.4375 C-14.01442143 0.71081317 -16.19678684 1.94944451 -19 5 C-21.25074879 8.96560501 -21.25475019 12.49941324 -21 17 C-20.21806727 19.12575659 -20.21806727 19.12575659 -18.375 19.625 C-15.16404892 20.13199228 -12.24534512 20.2360251 -9 20 C-6.89641619 18.45737187 -6.15945841 17.31891683 -5 15 C-3.02 15 -1.04 15 1 15 C1 17.88964889 0.43944113 19.5419292 -1.56640625 21.6328125 C-6.33358429 25.49506634 -9.84297379 27.09773057 -16 27 C-20.69098236 25.7695784 -22.43709483 24.94422803 -24.9375 20.75 C-26.87174628 13.92324841 -26.36680276 9.26921893 -23 3 C-16.94335133 -4.14373946 -7.90614894 -5.59215413 0 0 Z " fill="#2B2825" transform="translate(132,83)"/>
<path d="M0 0 C0.875 2.6875 0.875 2.6875 1 5 C-0.32 5 -1.64 5 -3 5 C-3.66 4.01 -4.32 3.02 -5 2 C-7.89608399 1.63501966 -7.89608399 1.63501966 -11.125 1.8125 C-12.22070312 1.83957031 -13.31640625 1.86664063 -14.4453125 1.89453125 C-15.70988281 1.94673828 -15.70988281 1.94673828 -17 2 C-16.05950473 5.34211711 -15.50444065 6.69873683 -12.46875 8.51171875 C-11.4890625 8.89972656 -10.509375 9.28773437 -9.5 9.6875 C-4.15231788 11.84768212 -4.15231788 11.84768212 -2 14 C-1.66621909 17.00402816 -1.44263565 19.1064489 -2 22 C-5.21503426 25.21503426 -9.31899238 25.70338 -13.71484375 26.0703125 C-17.44630522 25.9554983 -19.7608884 24.85092091 -23 23 C-25 20 -25 20 -25 16 C-23.68 16 -22.36 16 -21 16 C-20.649375 16.825 -20.29875 17.65 -19.9375 18.5 C-19.298125 19.325 -18.65875 20.15 -18 21 C-14.30402903 21.4661091 -10.7071837 21.28323135 -7 21 C-6.67 19.02 -6.34 17.04 -6 15 C-6.59167969 14.82984375 -7.18335937 14.6596875 -7.79296875 14.484375 C-12.55819569 13.02293509 -16.4963313 11.72264799 -20 8 C-21 5.5625 -21 5.5625 -21 3 C-19.82383756 0.2762554 -19.04153901 -1.49851826 -16.3125 -2.8125 C-5.24498328 -3.70986622 -5.24498328 -3.70986622 0 0 Z " fill="#2A2724" transform="translate(77,83)"/>
<path d="M0 0 C0.66 0 1.32 0 2 0 C2 1.98 2 3.96 2 6 C2.66 6 3.32 6 4 6 C4.37125 7.11375 4.7425 8.2275 5.125 9.375 C6.38227414 12.25043253 6.78357078 12.87632616 9.625 14.5 C15.18548646 15.32377577 21.18015381 15.20615319 26 12 C26.81870185 8.43793339 26.81870185 8.43793339 27 5 C27.33 5 27.66 5 28 5 C28.95347095 9.86270183 28.94723457 12.49702006 27 17 C27.25723969 19.02919843 27.25723969 19.02919843 28 21 C28.34428141 22.66443961 28.67881752 24.33094916 29 26 C26.56242587 26.02698422 24.12515085 26.04683099 21.6875 26.0625 C20.99720703 26.07087891 20.30691406 26.07925781 19.59570312 26.08789062 C16.4516975 26.10307906 14.00579981 26.00193327 11 25 C11 24.34 11 23.68 11 23 C10.443125 22.814375 9.88625 22.62875 9.3125 22.4375 C4.72963216 19.58869026 1.35580519 14.17671073 0 9 C-0.14762486 5.99150724 -0.11800009 3.00900229 0 0 Z " fill="#C6D07A" transform="translate(48,93)"/>
<path d="M0 0 C1 2 1 2 0.4765625 3.99609375 C0.05503906 5.20458984 0.05503906 5.20458984 -0.375 6.4375 C-2.13160047 11.93188961 -2.68359009 17.26097888 -3 23 C-2.34 23 -1.68 23 -1 23 C-1 22.34 -1 21.68 -1 21 C0.57421875 19.484375 0.57421875 19.484375 2.6875 17.75 C9.2900037 12.25062328 9.2900037 12.25062328 12.8125 4.625 C12.9053125 3.325625 12.9053125 3.325625 13 2 C15.27661245 5.41491868 15.19937002 5.86615195 14.4375 9.6875 C12.51013235 18.01518287 8.65135569 23.02120509 1.76953125 27.96875 C0 29 0 29 -2 29 C-2.33 27.68 -2.66 26.36 -3 25 C-4.65 24.67 -6.3 24.34 -8 24 C-8.33 24.99 -8.66 25.98 -9 27 C-9.33 27 -9.66 27 -10 27 C-10.44023976 18.27673066 -10.09007761 10.54063661 -4.4375 3.5 C-2 1 -2 1 0 0 Z " fill="#E42A30" transform="translate(99,56)"/>
<path d="M0 0 C0.79019531 0.27972656 1.58039062 0.55945313 2.39453125 0.84765625 C8.61707747 2.86203229 15.0220064 4.27111795 21.375 5.8125 C22.695 6.1425 24.015 6.4725 25.375 6.8125 C24.715 9.7825 24.055 12.7525 23.375 15.8125 C21.395 15.8125 19.415 15.8125 17.375 15.8125 C17.045 14.1625 16.715 12.5125 16.375 10.8125 C15.715 12.1325 15.055 13.4525 14.375 14.8125 C11.405 14.3175 11.405 14.3175 8.375 13.8125 C8.375 12.8225 8.375 11.8325 8.375 10.8125 C7.2303125 11.0909375 7.2303125 11.0909375 6.0625 11.375 C3.375 11.8125 3.375 11.8125 0.375 10.8125 C0.045 10.1525 -0.285 9.4925 -0.625 8.8125 C-2.94656597 8.40520772 -5.2818787 8.06811323 -7.625 7.8125 C-7.625 6.4925 -7.625 5.1725 -7.625 3.8125 C-6.965 3.8125 -6.305 3.8125 -5.625 3.8125 C-5.625 2.4925 -5.625 1.1725 -5.625 -0.1875 C-3.625 -1.1875 -3.625 -1.1875 0 0 Z M0.375 4.8125 C0.705 5.4725 1.035 6.1325 1.375 6.8125 C1.705 6.1525 2.035 5.4925 2.375 4.8125 C1.715 4.8125 1.055 4.8125 0.375 4.8125 Z M11.375 7.8125 C12.375 11.8125 12.375 11.8125 12.375 11.8125 Z " fill="#AE2A2D" transform="translate(54.625,155.1875)"/>
<path d="M0 0 C7 9.1 7 9.1 7 12 C7.99 12.33 8.98 12.66 10 13 C12.14472717 15.04723957 13.61583786 16.45952135 15 19 C14.91714461 23.63990197 13.58740755 27.66108603 12 32 C10.28125 31.90625 10.28125 31.90625 8 31 C6.32364189 28.85142834 4.90767577 26.8130584 3.5 24.5 C3.10562744 23.86795654 2.71125488 23.23591309 2.30493164 22.5847168 C-5 10.67875493 -5 10.67875493 -5 5 C-4.01 5.33 -3.02 5.66 -2 6 C-1.67 7.98 -1.34 9.96 -1 12 C-0.01 12.33 0.98 12.66 2 13 C1.855625 12.39671875 1.71125 11.7934375 1.5625 11.171875 C1.376875 10.37265625 1.19125 9.5734375 1 8.75 C0.814375 7.96109375 0.62875 7.1721875 0.4375 6.359375 C0 4 0 4 0 0 Z " fill="#D12930" transform="translate(100,95)"/>
<path d="M0 0 C1.0169313 2.65498232 1.13022151 3.69155375 0.00390625 6.359375 C-0.47175781 7.14828125 -0.94742188 7.9371875 -1.4375 8.75 C-1.91058594 9.54921875 -2.38367188 10.3484375 -2.87109375 11.171875 C-3.24363281 11.77515625 -3.61617187 12.3784375 -4 13 C-3.01 13 -2.02 13 -1 13 C-0.67 12.01 -0.34 11.02 0 10 C1.65 10.99 3.3 11.98 5 13 C4.7525 11.9790625 4.7525 11.9790625 4.5 10.9375 C3.92910941 7.5835178 3.93340977 4.39610195 4 1 C4.99 1.33 5.98 1.66 7 2 C7.89385656 4.59188507 8.58209673 7.02796579 9.1875 9.6875 C9.36474609 10.39583984 9.54199219 11.10417969 9.72460938 11.83398438 C10.7134946 15.9689755 11.19551261 19.71894804 11 24 C9.68 23.67 8.36 23.34 7 23 C6.67 21.02 6.34 19.04 6 17 C2.04 17 -1.92 17 -6 17 C-7.32 19.31 -8.64 21.62 -10 24 C-11.32 24 -12.64 24 -14 24 C-12.58196151 18.75325757 -10.07547762 14.29472755 -7.4375 9.5859375 C-6.55977845 8.00699275 -5.71865278 6.40604476 -4.9453125 4.7734375 C-3.72565049 2.48531124 -2.13293434 1.42195623 0 0 Z " fill="#F9EEE8" transform="translate(91,84)"/>
<path d="M0 0 C0.721875 0.268125 1.44375 0.53625 2.1875 0.8125 C2.8125 2.6875 2.8125 2.6875 3.1875 4.8125 C2.5275 5.4725 1.8675 6.1325 1.1875 6.8125 C1.37828125 7.42996094 1.5690625 8.04742187 1.765625 8.68359375 C2.1875 10.8125 2.1875 10.8125 0.859375 12.84765625 C-0.09195313 13.85119141 -0.09195313 13.85119141 -1.0625 14.875 C-1.68640625 15.54660156 -2.3103125 16.21820313 -2.953125 16.91015625 C-3.56671875 17.53792969 -4.1803125 18.16570312 -4.8125 18.8125 C-5.34359375 19.38871094 -5.8746875 19.96492188 -6.421875 20.55859375 C-7.8125 21.8125 -7.8125 21.8125 -9.8125 21.8125 C-9.8125 22.4725 -9.8125 23.1325 -9.8125 23.8125 C-10.4725 23.8125 -11.1325 23.8125 -11.8125 23.8125 C-12.20249191 16.21487976 -11.42008587 9.96783979 -8.8125 2.8125 C-8.4825 3.4725 -8.1525 4.1325 -7.8125 4.8125 C-7.090625 3.966875 -6.36875 3.12125 -5.625 2.25 C-2.8125 -0.1875 -2.8125 -0.1875 0 0 Z " fill="#D0D77F" transform="translate(107.8125,55.1875)"/>
<path d="M0 0 C4.62 0 9.24 0 14 0 C14 0.66 14 1.32 14 2 C15.32 2.33 16.64 2.66 18 3 C17.01 3 16.02 3 15 3 C15 3.66 15 4.32 15 5 C15.66 5 16.32 5 17 5 C17 5.99 17 6.98 17 8 C16.34 8 15.68 8 15 8 C14.67 8.66 14.34 9.32 14 10 C15.65 9.67 17.3 9.34 19 9 C18.67 9.99 18.34 10.98 18 12 C17.01 12.33 16.02 12.66 15 13 C14.26676204 15.01508358 14.26676204 15.01508358 14 17 C8.84535266 16.51675181 5.18449681 13.81389239 1 11 C2.32 10.34 3.64 9.68 5 9 C3.35 8.67 1.7 8.34 0 8 C0.33 6.35 0.66 4.7 1 3 C2.65 3.33 4.3 3.66 6 4 C6 3.34 6 2.68 6 2 C4.02 2 2.04 2 0 2 C0 1.34 0 0.68 0 0 Z " fill="#C3CD7F" transform="translate(26,66)"/>
<path d="M0 0 C0.97591583 3.38317487 0.85856655 5.5657338 0 9 C-0.66 9 -1.32 9 -2 9 C-2.66 10.65 -3.32 12.3 -4 14 C-3.01 14.33 -2.02 14.66 -1 15 C-1.28875 15.53625 -1.5775 16.0725 -1.875 16.625 C-5.61393575 24.51830881 -5.6663697 30.8342428 -3 39 C-3.66 39 -4.32 39 -5 39 C-6.25612919 37.21298942 -7.43208805 35.36907362 -8.5625 33.5 C-9.68475038 31.65213658 -10.82466088 29.81455865 -12 28 C-12.33 28 -12.66 28 -13 28 C-13.66 24.37 -14.32 20.74 -15 17 C-13.453125 16.05125 -11.90625 15.1025 -10.3125 14.125 C-4.78706933 10.30814222 -2.36530502 6.18713998 0 0 Z " fill="#CED57E" transform="translate(112,68)"/>
<path d="M0 0 C0.804375 0.185625 1.60875 0.37125 2.4375 0.5625 C3.283125 0.706875 4.12875 0.85125 5 1 C5.33 0.67 5.66 0.34 6 0 C8.33294775 -0.04241723 10.66702567 -0.04092937 13 0 C13.66 0 14.32 0 15 0 C17 0 19 0 21 0 C22.25664978 2.90600261 23 4.79604584 23 8 C17.31160882 8.9802248 11.82705667 9.11948801 6.0625 9.0625 C5.18787109 9.05798828 4.31324219 9.05347656 3.41210938 9.04882812 C1.27470953 9.03714834 -0.86265463 9.01921689 -3 9 C-2.01 6.03 -1.02 3.06 0 0 Z M10 3 C10.66 4.32 11.32 5.64 12 7 C12 5.68 12 4.36 12 3 C11.34 3 10.68 3 10 3 Z " fill="#AA2B2F" transform="translate(83,162)"/>
<path d="M0 0 C0.66 3.3 1.32 6.6 2 10 C1.01 10 0.02 10 -1 10 C-1.33 10.66 -1.66 11.32 -2 12 C-4.3125 12.5625 -4.3125 12.5625 -7 13 C-7.7425 13.20625 -8.485 13.4125 -9.25 13.625 C-9.8275 13.74875 -10.405 13.8725 -11 14 C-11.33 13.67 -11.66 13.34 -12 13 C-12.391875 13.515625 -12.78375 14.03125 -13.1875 14.5625 C-15 16 -15 16 -17.5625 15.875 C-20 15 -20 15 -22 12 C-21.625 9.3125 -21.625 9.3125 -21 7 C-19.88625 6.87625 -18.7725 6.7525 -17.625 6.625 C-13.96896323 6.3534187 -13.96896323 6.3534187 -12 4 C-9.67724823 3.59952556 -7.34260643 3.2602896 -5 3 C-5 2.34 -5 1.68 -5 1 C-1.125 0 -1.125 0 0 0 Z M-11 7 C-11 7.99 -11 8.98 -11 10 C-10.34 10 -9.68 10 -9 10 C-9.33 9.01 -9.66 8.02 -10 7 C-10.33 7 -10.66 7 -11 7 Z M-18 9 C-17.67 10.32 -17.34 11.64 -17 13 C-16.67 12.34 -16.34 11.68 -16 11 C-15.34 11 -14.68 11 -14 11 C-14.33 10.34 -14.66 9.68 -15 9 C-15.99 9 -16.98 9 -18 9 Z " fill="#B22E30" transform="translate(128,154)"/>
<path d="M0 0 C3.3 0 6.6 0 10 0 C14.125 8.625 14.125 8.625 13 12 C10.1640625 13.38671875 10.1640625 13.38671875 6.625 14.6875 C5.46226563 15.12449219 4.29953125 15.56148437 3.1015625 16.01171875 C0 17 0 17 -3 17 C-2.54762239 15.08191891 -2.08785537 13.16557967 -1.625 11.25 C-1.24214844 9.64898437 -1.24214844 9.64898437 -0.8515625 8.015625 C-0.12466459 5.44147278 0.7026224 3.32399814 2 1 C1.34 0.67 0.68 0.34 0 0 Z " fill="#C8D07A" transform="translate(85,100)"/>
<path d="M0 0 C3.66881155 0.70554068 6.70450534 2.27735506 10 4 C10 4.99 10 5.98 10 7 C7.03 7 4.06 7 1 7 C1 7.66 1 8.32 1 9 C3.31 9.33 5.62 9.66 8 10 C6.84414715 13.91211733 5.64465038 16.8745041 3 20 C3 19.01 3 18.02 3 17 C2.443125 17.350625 1.88625 17.70125 1.3125 18.0625 C-1.53886783 19.21845993 -3.08517222 18.80967438 -6 18 C-6.28875 18.61875 -6.5775 19.2375 -6.875 19.875 C-8 22 -8 22 -10 24 C-9.36990829 21.02707881 -8.40237819 18.65136322 -6.93359375 15.99609375 C-6.53076172 15.25552734 -6.12792969 14.51496094 -5.71289062 13.75195312 C-4.86006884 12.20433626 -4.00589348 10.65746454 -3.15039062 9.11132812 C-2.74884766 8.37205078 -2.34730469 7.63277344 -1.93359375 6.87109375 C-1.56290771 6.20005615 -1.19222168 5.52901855 -0.81030273 4.83764648 C0.20173181 2.87722987 0.20173181 2.87722987 0 0 Z M2 12 C3 14 3 14 3 14 Z " fill="#84282A" transform="translate(169,106)"/>
<path d="M0 0 C0.33 0.99 0.66 1.98 1 3 C5.29 3 9.58 3 14 3 C14 3.66 14 4.32 14 5 C13.01 5.495 13.01 5.495 12 6 C12.63808594 6.20496094 13.27617188 6.40992187 13.93359375 6.62109375 C14.75988281 6.89050781 15.58617188 7.15992187 16.4375 7.4375 C17.26121094 7.70433594 18.08492187 7.97117187 18.93359375 8.24609375 C21 9 21 9 22 10 C24.32817964 10.36760731 26.6618385 10.70241581 29 11 C28.375 13.8125 28.375 13.8125 27 17 C22.2 20 22.2 20 19 20 C18.67 19.01 18.34 18.02 18 17 C18.66 16.67 19.32 16.34 20 16 C19.89386164 13.54775306 19.89386164 13.54775306 19 11 C15.0433624 8.48213971 10.54876958 8.52021092 6 9 C3.26225382 9.92745649 3.26225382 9.92745649 1 11 C-2 11 -2 11 -5 10 C-3.625 7.5 -3.625 7.5 -2 5 C-1.34 5 -0.68 5 0 5 C0 3.35 0 1.7 0 0 Z " fill="#C1CC75" transform="translate(112,72)"/>
<path d="M0 0 C1 3 1 3 -0.65234375 6.35546875 C-1.40377702 7.63889017 -2.16596501 8.91606134 -2.9375 10.1875 C-3.51661133 11.16879883 -3.51661133 11.16879883 -4.10742188 12.16992188 C-5.06253088 13.78535316 -6.03010066 15.39340525 -7 17 C-5.68 17 -4.36 17 -3 17 C-2.690625 16.21625 -2.38125 15.4325 -2.0625 14.625 C-1 12 -1 12 0 10 C0.99 10 1.98 10 3 10 C2.80664062 10.61746094 2.61328125 11.23492187 2.4140625 11.87109375 C0.8644402 16.91120192 -0.50186203 21.92566649 -1.5703125 27.08984375 C-2 29 -2 29 -3 32 C-3.99 32 -4.98 32 -6 32 C-6.48108275 30.58398286 -6.95978141 29.16715563 -7.4375 27.75 C-7.70433594 26.96109375 -7.97117187 26.1721875 -8.24609375 25.359375 C-8.49488281 24.58078125 -8.74367188 23.8021875 -9 23 C-9.21317871 22.36940674 -9.42635742 21.73881348 -9.64599609 21.08911133 C-10.0823692 18.51390808 -9.61157088 17.51077427 -8.41796875 15.21484375 C-7.88526367 14.17166992 -7.88526367 14.17166992 -7.34179688 13.10742188 C-6.96087891 12.39134766 -6.57996094 11.67527344 -6.1875 10.9375 C-5.81818359 10.21755859 -5.44886719 9.49761719 -5.06835938 8.75585938 C-3.49568074 5.71497088 -1.90269965 2.85404947 0 0 Z " fill="#DA3535" transform="translate(84,91)"/>
<path d="M0 0 C5.62337444 1.7182533 7.68753657 4.93755747 10.75 9.75 C12.3626043 13.94277118 12.26610506 17.5649156 12 22 C10.68 22.33 9.36 22.66 8 23 C0.14806378 8.58769932 0.14806378 8.58769932 0 0 Z " fill="#BEC975" transform="translate(28,79)"/>
<path d="M0 0 C0.66 0 1.32 0 2 0 C2 3.63 2 7.26 2 11 C1.01 11.33 0.02 11.66 -1 12 C-1.33 12.66 -1.66 13.32 -2 14 C-2.433125 13.525625 -2.86625 13.05125 -3.3125 12.5625 C-6.47407866 9.63511235 -9.85613992 9.79023316 -14 9.8359375 C-16.61140881 10.05015463 -18.66685198 10.83342599 -21 12 C-21.99 12.495 -21.99 12.495 -23 13 C-23.85039667 10.61888932 -24.07366994 9.28649422 -23.4375 6.8125 C-22 5 -22 5 -18.875 4.25 C-17.92625 4.1675 -16.9775 4.085 -16 4 C-15.67 4.66 -15.34 5.32 -15 6 C-14.01 6 -13.02 6 -12 6 C-11.54625 5.484375 -11.0925 4.96875 -10.625 4.4375 C-10.08875 3.963125 -9.5525 3.48875 -9 3 C-6.3125 3.3125 -6.3125 3.3125 -4 4 C-3.67 3.34 -3.34 2.68 -3 2 C-3 2.99 -3 3.98 -3 5 C-2.34 5 -1.68 5 -1 5 C-0.67 3.35 -0.34 1.7 0 0 Z " fill="#CFDA8D" transform="translate(79,71)"/>
<path d="M0 0 C2.625 0.375 2.625 0.375 5 1 C4.125 5.75 4.125 5.75 3 8 C2.34 8 1.68 8 1 8 C0.95101562 8.63808594 0.90203125 9.27617188 0.8515625 9.93359375 C0.77679688 10.75988281 0.70203125 11.58617187 0.625 12.4375 C0.55539063 13.26121094 0.48578125 14.08492187 0.4140625 14.93359375 C0.27742188 15.61550781 0.14078125 16.29742187 0 17 C-0.99 17.495 -0.99 17.495 -2 18 C-2.66 17.01 -3.32 16.02 -4 15 C-4.53109375 15.34933594 -5.0621875 15.69867188 -5.609375 16.05859375 C-6.66898438 16.74115234 -6.66898438 16.74115234 -7.75 17.4375 C-8.44609375 17.88996094 -9.1421875 18.34242187 -9.859375 18.80859375 C-14.36014183 21.31358259 -18.69781551 21.12457788 -23.75 21.0625 C-24.44738281 21.05798828 -25.14476562 21.05347656 -25.86328125 21.04882812 C-27.57555803 21.0371002 -29.28779033 21.01916653 -31 21 C-31.33 21.66 -31.66 22.32 -32 23 C-32.33 22.01 -32.66 21.02 -33 20 C-31.54980469 19.94392578 -31.54980469 19.94392578 -30.0703125 19.88671875 C-18.69712685 19.50088969 -18.69712685 19.50088969 -8 16 C-7.67 15.01 -7.34 14.02 -7 13 C-6.34 12.67 -5.68 12.34 -5 12 C-4.1625428 9.72102817 -4.1625428 9.72102817 -3.5 7.0625 C-2.21722114 2.21722114 -2.21722114 2.21722114 0 0 Z " fill="#C55C50" transform="translate(57,45)"/>
<path d="M0 0 C1.65 0 3.3 0 5 0 C5.33 1.65 5.66 3.3 6 5 C5.34 5 4.68 5 4 5 C4.33 8.96 4.66 12.92 5 17 C1 16 1 16 0 15 C-0.33 15.66 -0.66 16.32 -1 17 C-1.99 17 -2.98 17 -4 17 C-3.05054252 14.55853792 -2.1015555 12.19182705 -0.875 9.875 C0.21144273 7.89176146 0.21144273 7.89176146 0 5 C-0.99 5.66 -1.98 6.32 -3 7 C-5.48046875 6.9765625 -5.48046875 6.9765625 -8.1875 6.625 C-9.53908203 6.45871094 -9.53908203 6.45871094 -10.91796875 6.2890625 C-11.94857422 6.14597656 -11.94857422 6.14597656 -13 6 C-13 5.34 -13 4.68 -13 4 C-9.04 4 -5.08 4 -1 4 C-0.67 2.68 -0.34 1.36 0 0 Z " fill="#F5E8D9" transform="translate(91,80)"/>
<path d="M0 0 C2.27661245 3.41491868 2.19937002 3.86615195 1.4375 7.6875 C0.26458475 12.76518373 -1.42273056 17.13543691 -5 21 C-7.33728053 22.44019153 -9.35166203 23.16914887 -12 24 C-12.99 23.01 -13.98 22.02 -15 21 C-14.360625 20.38125 -13.72125 19.7625 -13.0625 19.125 C-12.03712427 18.08780438 -11.01724133 17.04517473 -10 16 C-9.24074219 15.22527344 -8.48148437 14.45054688 -7.69921875 13.65234375 C-6.89097656 12.79769531 -6.08273438 11.94304687 -5.25 11.0625 C-4.47140625 10.24910156 -3.6928125 9.43570313 -2.890625 8.59765625 C-0.75318444 5.66088358 -0.31276866 3.58120118 0 0 Z " fill="#E42D2D" transform="translate(112,58)"/>
<path d="M0 0 C0.66 0 1.32 0 2 0 C2 0.66 2 1.32 2 2 C2.78246094 1.98839844 3.56492187 1.97679688 4.37109375 1.96484375 C5.38300781 1.95582031 6.39492187 1.94679688 7.4375 1.9375 C8.44683594 1.92589844 9.45617187 1.91429688 10.49609375 1.90234375 C13 2 13 2 14 3 C14.04063832 4.66617115 14.042721 6.33388095 14 8 C10.25 9.125 10.25 9.125 8 8 C7.01 9.485 7.01 9.485 6 11 C4.68 10.67 3.36 10.34 2 10 C2 9.34 2 8.68 2 8 C1.01 8 0.02 8 -1 8 C-0.67 5.36 -0.34 2.72 0 0 Z " fill="#969A71" transform="translate(61,67)"/>
<path d="M0 0 C3.94120709 0.56302958 6.7508723 1.6791945 10 4 C10 4.66 10 5.32 10 6 C10.99 6 11.98 6 13 6 C13 6.99 13 7.98 13 9 C12.34 9 11.68 9 11 9 C10.731875 9.804375 10.46375 10.60875 10.1875 11.4375 C9.795625 12.283125 9.40375 13.12875 9 14 C8.01 14.33 7.02 14.66 6 15 C5.67 14.01 5.34 13.02 5 12 C4.195625 11.87625 3.39125 11.7525 2.5625 11.625 C1.716875 11.41875 0.87125 11.2125 0 11 C-0.33 10.34 -0.66 9.68 -1 9 C0.65 8.67 2.3 8.34 4 8 C4 6.35 4 4.7 4 3 C3.67 3.66 3.34 4.32 3 5 C1.35 4.67 -0.3 4.34 -2 4 C-1.34 2.68 -0.68 1.36 0 0 Z " fill="#9D2D2F" transform="translate(36,146)"/>
<path d="M0 0 C0.66 0 1.32 0 2 0 C2.33 0.66 2.66 1.32 3 2 C3.99 2 4.98 2 6 2 C6.33 5.63 6.66 9.26 7 13 C3.04 13 -0.92 13 -5 13 C-4.34 12.34 -3.68 11.68 -3 11 C-2.75787127 9.01871492 -2.75787127 9.01871492 -2.875 6.875 C-2.936875 4.956875 -2.936875 4.956875 -3 3 C-2.01 3.33 -1.02 3.66 0 4 C0 2.68 0 1.36 0 0 Z " fill="#CBD683" transform="translate(83,71)"/>
<path d="M0 0 C1.36511719 0.29197266 1.36511719 0.29197266 2.7578125 0.58984375 C3.45648438 0.74582031 4.15515625 0.90179688 4.875 1.0625 C4.215 4.0325 3.555 7.0025 2.875 10.0625 C0.895 10.0625 -1.085 10.0625 -3.125 10.0625 C-3.455 8.4125 -3.785 6.7625 -4.125 5.0625 C-4.785 6.3825 -5.445 7.7025 -6.125 9.0625 C-7.115 9.0625 -8.105 9.0625 -9.125 9.0625 C-8.795 8.32 -8.465 7.5775 -8.125 6.8125 C-6.89717129 3.92366688 -6.89717129 3.92366688 -7.125 0.0625 C-4.4030754 -1.2984623 -2.9418043 -0.64116248 0 0 Z " fill="#BD2E30" transform="translate(75.125,160.9375)"/>
<path d="M0 0 C3.3133979 1.10446597 3.67066521 1.5958183 5.5 4.375 C6.78039161 6.30379505 7.92826414 7.93208542 9.61328125 9.52734375 C11.69507427 11.73814929 11.67349829 14.0614846 12 17 C8.90255505 15.63387799 6.92333129 14.0959759 4.625 11.625 C2.39786556 9.3112815 0.28471616 7.39290729 -2.4375 5.6875 C-3.283125 5.130625 -4.12875 4.57375 -5 4 C-5 3.34 -5 2.68 -5 2 C-2.525 2.99 -2.525 2.99 0 4 C0 2.68 0 1.36 0 0 Z " fill="#2C2A28" transform="translate(49,107)"/>
<path d="M0 0 C0.99 0.33 1.98 0.66 3 1 C3.89385656 3.59188507 4.58209673 6.02796579 5.1875 8.6875 C5.36474609 9.39583984 5.54199219 10.10417969 5.72460938 10.83398438 C6.7134946 14.9689755 7.19551261 18.71894804 7 23 C5.68 22.67 4.36 22.34 3 22 C2.690625 20.88625 2.38125 19.7725 2.0625 18.625 C1.17673517 15.2054845 1.17673517 15.2054845 0 13 C-0.07092842 10.7927077 -0.08415025 8.58332548 -0.0625 6.375 C-0.05347656 5.18648438 -0.04445313 3.99796875 -0.03515625 2.7734375 C-0.02355469 1.85820313 -0.01195313 0.94296875 0 0 Z " fill="#FDF2F2" transform="translate(95,85)"/>
<path d="M0 0 C1.32 0 2.64 0 4 0 C4 0.66 4 1.32 4 2 C6.31 2 8.62 2 11 2 C11 2.99 11 3.98 11 5 C9.36935236 6.05771739 7.69719127 7.05273046 6 8 C5.505 8.5775 5.01 9.155 4.5 9.75 C3.7575 10.36875 3.7575 10.36875 3 11 C0.3125 10.6875 0.3125 10.6875 -2 10 C-2.33 9.01 -2.66 8.02 -3 7 C-1.68 7 -0.36 7 1 7 C1 6.34 1 5.68 1 5 C-0.32 5.33 -1.64 5.66 -3 6 C-2.67 5.01 -2.34 4.02 -2 3 C-0.68 3 0.64 3 2 3 C2 2.34 2 1.68 2 1 C1.34 0.67 0.68 0.34 0 0 Z " fill="#992A2C" transform="translate(143,144)"/>
<path d="M0 0 C0.33 0.66 0.66 1.32 1 2 C1.66 2 2.32 2 3 2 C3.33 1.34 3.66 0.68 4 0 C4.99 0.33 5.98 0.66 7 1 C6.125 8.875 6.125 8.875 5 10 C1.33468329 10.40725741 -0.39771874 10.43240706 -3.4375 8.25 C-5 6 -5 6 -5 3.875 C-3.73064878 1.49496645 -2.47359354 0.95752008 0 0 Z " fill="#AA2B2D" transform="translate(154,135)"/>
<path d="M0 0 C0.33 0 0.66 0 1 0 C2.02385247 2.99330116 2.81957496 5.83194849 3 9 C0.68026332 12.37416244 -0.88391529 13.67757553 -4.8125 14.8125 C-5.534375 14.874375 -6.25625 14.93625 -7 15 C-6.34 12.69 -5.68 10.38 -5 8 C-4.34 8 -3.68 8 -3 8 C-3 7.34 -3 6.68 -3 6 C-2.34 6 -1.68 6 -1 6 C-0.67 4.02 -0.34 2.04 0 0 Z " fill="#D2DB94" transform="translate(52,70)"/>
<path d="M0 0 C1.65 0.33 3.3 0.66 5 1 C5.75 2.6875 5.75 2.6875 6 5 C4.0625 7.75 4.0625 7.75 2 10 C-0.97 9.505 -0.97 9.505 -4 9 C-2.94124926 5.59687262 -1.99097846 2.98646769 0 0 Z " fill="#E4302E" transform="translate(105,55)"/>
<path d="M0 0 C0.97591583 3.38317487 0.85856655 5.5657338 0 9 C-0.66 9 -1.32 9 -2 9 C-3.10636395 11.39068734 -3.10636395 11.39068734 -4 14 C-3.67 14.66 -3.34 15.32 -3 16 C-6.50776784 17.60355101 -9.14354879 18.22036864 -13 18 C-11.89979113 14.91941516 -11.08256346 14.04770333 -8.1875 12.375 C-3.75687403 9.07374928 -2.15147944 4.98838597 0 0 Z " fill="#D6DC8E" transform="translate(112,68)"/>
<path d="M0 0 C3.66881155 0.70554068 6.70450534 2.27735506 10 4 C10 4.99 10 5.98 10 7 C7.03 7 4.06 7 1 7 C1 7.66 1 8.32 1 9 C1.99 9 2.98 9 4 9 C4 9.66 4 10.32 4 11 C3.01 11.33 2.02 11.66 1 12 C-1 10 -1 10 -1.1875 7.125 C-1.03404904 4.56748401 -0.7487803 2.43353596 0 0 Z " fill="#992B2E" transform="translate(169,106)"/>
<path d="M0 0 C0 0.66 0 1.32 0 2 C-1.65 1.67 -3.3 1.34 -5 1 C-5.33 2.65 -5.66 4.3 -6 6 C-4.35 5.67 -2.7 5.34 -1 5 C-1 5.66 -1 6.32 -1 7 C-1.66 7.66 -2.32 8.32 -3 9 C-1.68 9.99 -0.36 10.98 1 12 C-1 12 -3 12 -5 12 C-5 11.34 -5 10.68 -5 10 C-6.98 10 -8.96 10 -11 10 C-11 9.01 -11 8.02 -11 7 C-10.01 7 -9.02 7 -8 7 C-8 5.02 -8 3.04 -8 1 C-4.93251126 -0.86240388 -3.40254489 -1.2151946 0 0 Z " fill="#3B3A35" transform="translate(32,68)"/>
<path d="M0 0 C4.62 0 9.24 0 14 0 C14 0.66 14 1.32 14 2 C15.32 2.33 16.64 2.66 18 3 C17.01 3 16.02 3 15 3 C15 3.66 15 4.32 15 5 C15.66 5 16.32 5 17 5 C17 5.99 17 6.98 17 8 C15.0625 7.6875 15.0625 7.6875 13 7 C12.67 6.01 12.34 5.02 12 4 C11.34 3.67 10.68 3.34 10 3 C10 2.34 10 1.68 10 1 C9.34 1 8.68 1 8 1 C7.67 2.65 7.34 4.3 7 6 C4.03 5.505 4.03 5.505 1 5 C1 4.34 1 3.68 1 3 C2.65 3.33 4.3 3.66 6 4 C6 3.34 6 2.68 6 2 C4.02 2 2.04 2 0 2 C0 1.34 0 0.68 0 0 Z " fill="#C9CB7F" transform="translate(26,66)"/>
<path d="M0 0 C2.97 0.495 2.97 0.495 6 1 C6 3.64 6 6.28 6 9 C3.03 9 0.06 9 -3 9 C-2.01 6.03 -1.02 3.06 0 0 Z " fill="#9D2C30" transform="translate(83,162)"/>
<path d="M0 0 C2.02350324 3.03525486 2.32124018 4.19426202 2.625 7.6875 C2.69976562 8.49574219 2.77453125 9.30398437 2.8515625 10.13671875 C2.92503906 11.05904297 2.92503906 11.05904297 3 12 C-0.875 11.125 -0.875 11.125 -2 10 C-2.33 10.66 -2.66 11.32 -3 12 C-3.99 12 -4.98 12 -6 12 C-4.43358249 7.69235185 -2.31663844 3.93828536 0 0 Z " fill="#E43939" transform="translate(93,85)"/>
<path d="M0 0 C5.50263621 -0.28461911 9.32125724 -0.30935464 14 3 C14.875 5.6875 14.875 5.6875 15 8 C13.68 8 12.36 8 11 8 C10.34 7.01 9.68 6.02 9 5 C6.33346095 4.63539547 6.33346095 4.63539547 3.375 4.8125 C2.37210937 4.83957031 1.36921875 4.86664063 0.3359375 4.89453125 C-0.82035156 4.94673828 -0.82035156 4.94673828 -2 5 C-1 3 -1 3 2 2 C1.34 1.34 0.68 0.68 0 0 Z " fill="#4B4B35" transform="translate(63,80)"/>
<path d="M0 0 C1.98 0 3.96 0 6 0 C7.25664978 2.90600261 8 4.79604584 8 8 C5.69 8.33 3.38 8.66 1 9 C0.67 6.03 0.34 3.06 0 0 Z " fill="#BB2729" transform="translate(98,162)"/>
<path d="M0 0 C1.98 0.495 1.98 0.495 4 1 C3.34 2.65 2.68 4.3 2 6 C2.66 6 3.32 6 4 6 C4 6.66 4 7.32 4 8 C4.99 8 5.98 8 7 8 C7.33 7.01 7.66 6.02 8 5 C8.6875 6.8125 8.6875 6.8125 9 9 C7.9375 10.8125 7.9375 10.8125 6 12 C0.56521739 11.56521739 0.56521739 11.56521739 -1 10 C-1.19382275 6.51119051 -0.77675511 3.39830361 0 0 Z " fill="#B42D2F" transform="translate(32,143)"/>
<path d="M0 0 C0.86625 0.3403125 0.86625 0.3403125 1.75 0.6875 C2.08 2.3375 2.41 3.9875 2.75 5.6875 C1.43 5.6875 0.11 5.6875 -1.25 5.6875 C-0.92 6.6775 -0.59 7.6675 -0.25 8.6875 C-1.57 9.6775 -2.89 10.6675 -4.25 11.6875 C-5.74821059 8.31652617 -6.25 6.48307881 -6.25 2.6875 C-4.0985146 0.45917583 -3.1311405 -0.43488062 0 0 Z " fill="#B33235" transform="translate(7.25,106.3125)"/>
<path d="M0 0 C0.33 0.99 0.66 1.98 1 3 C2.99665314 4.68538601 2.99665314 4.68538601 5 6 C4.34 7.32 3.68 8.64 3 10 C2.67 8.68 2.34 7.36 2 6 C-0.02045442 6.60183749 -2.02111039 7.27306096 -4 8 C-4.33 8.66 -4.66 9.32 -5 10 C-5.66 9.34 -6.32 8.68 -7 8 C-6.80688882 5.1033323 -5.97235629 3.96789763 -4.0625 1.75 C-2 0 -2 0 0 0 Z " fill="#BE2F31" transform="translate(27,134)"/>
<path d="M0 0 C1.32 0 2.64 0 4 0 C4.391875 0.804375 4.78375 1.60875 5.1875 2.4375 C6.71012513 5.17849278 6.71012513 5.17849278 9.1875 5.5546875 C11.46389301 5.78944053 13.71250528 5.94724855 16 6 C16 6.33 16 6.66 16 7 C14.9275 7.144375 13.855 7.28875 12.75 7.4375 C9.20561067 7.81618591 9.20561067 7.81618591 6.875 8.875 C5 9 5 9 2.25 6.8125 C0 4 0 4 0 0 Z " fill="#343229" transform="translate(52,99)"/>
<path d="M0 0 C0.66 0 1.32 0 2 0 C2 0.66 2 1.32 2 2 C2.99 2 3.98 2 5 2 C4.67 3.65 4.34 5.3 4 7 C4.99 6.67 5.98 6.34 7 6 C6.67 7.65 6.34 9.3 6 11 C4.68 10.67 3.36 10.34 2 10 C2 9.34 2 8.68 2 8 C1.01 8 0.02 8 -1 8 C-0.67 5.36 -0.34 2.72 0 0 Z " fill="#656555" transform="translate(61,67)"/>
<path d="M0 0 C2.86207152 1.28299758 5.0245088 2.530636 7 5 C7 5.99 7 6.98 7 8 C5.35 8.33 3.7 8.66 2 9 C-1.07692308 4.56923077 -1.07692308 4.56923077 -0.6875 1.6875 C-0.460625 1.130625 -0.23375 0.57375 0 0 Z " fill="#211F1E" transform="translate(156,81)"/>
<path d="M0 0 C0.103125 0.598125 0.20625 1.19625 0.3125 1.8125 C0.82969347 4.09240718 0.82969347 4.09240718 2.625 5.5 C3.07875 5.995 3.5325 6.49 4 7 C3.6875 9.1875 3.6875 9.1875 3 11 C1.68 11 0.36 11 -1 11 C-0.34 10.67 0.32 10.34 1 10 C1 9.01 1 8.02 1 7 C0.01 7 -0.98 7 -2 7 C-2.33 7.66 -2.66 8.32 -3 9 C-3.66 9 -4.32 9 -5 9 C-5.33 7.68 -5.66 6.36 -6 5 C-5.195625 4.54625 -4.39125 4.0925 -3.5625 3.625 C-0.91143428 2.25274335 -0.91143428 2.25274335 0 0 Z " fill="#CA2B2E" transform="translate(160,128)"/>
<path d="M0 0 C1.98 0 3.96 0 6 0 C5.66275164 3.11954738 5.3790035 4.6209965 3.125 6.875 C2.42375 7.24625 1.7225 7.6175 1 8 C0.01 7.67 -0.98 7.34 -2 7 C-1.125 2.25 -1.125 2.25 0 0 Z " fill="#272424" transform="translate(127,98)"/>
<path d="M0 0 C1.5 1.375 1.5 1.375 3 3 C3 3.66 3 4.32 3 5 C2.01 5.495 2.01 5.495 1 6 C1 6.66 1 7.32 1 8 C0.01 8.33 -0.98 8.66 -2 9 C-3.98 5.535 -3.98 5.535 -6 2 C-4.02 1.34 -2.04 0.68 0 0 Z " fill="#AD2E31" transform="translate(138,152)"/>
<path d="M0 0 C0.33 0 0.66 0 1 0 C1.34833144 4.87664009 0.41685712 7.77050005 -2 12 C-3.64826111 9.03312999 -4.44271087 6.34373475 -5 3 C-4.01 2.34 -3.02 1.68 -2 1 C-1.34 1.33 -0.68 1.66 0 2 C0 1.34 0 0.68 0 0 Z " fill="#62624E" transform="translate(58,68)"/>
<path d="M0 0 C0.99 0 1.98 0 3 0 C3 3.63 3 7.26 3 11 C2.01 11 1.02 11 0 11 C-1.49297212 8.01405576 -1.11755228 5.29146376 -1 2 C-0.67 1.34 -0.34 0.68 0 0 Z " fill="#201C1E" transform="translate(107,91)"/>
<path d="M0 0 C-0.33 2.31 -0.66 4.62 -1 7 C-1.99 6.34 -2.98 5.68 -4 5 C-6.33199388 4.92094936 -8.66832622 4.91201231 -11 5 C-10.25 3.0625 -10.25 3.0625 -9 1 C-6.05528957 -0.21850087 -3.15451555 -0.08762543 0 0 Z " fill="#D02C30" transform="translate(172,123)"/>
<path d="M0 0 C0.8125 2.625 0.8125 2.625 1 5 C0.01 5.33 -0.98 5.66 -2 6 C-2.53625 5.195625 -3.0725 4.39125 -3.625 3.5625 C-6.43105369 0.53491576 -7.96825194 0.27489191 -12 0 C-12 -0.33 -12 -0.66 -12 -1 C-3.97674419 -2.57318741 -3.97674419 -2.57318741 0 0 Z " fill="#2F2C26" transform="translate(132,83)"/>
<path d="M0 0 C0.66 0.33 1.32 0.66 2 1 C1.67 2.98 1.34 4.96 1 7 C0.34 7 -0.32 7 -1 7 C-1 7.66 -1 8.32 -1 9 C-1.99 8.67 -2.98 8.34 -4 8 C-3.67 5.69 -3.34 3.38 -3 1 C-2.01 0.67 -1.02 0.34 0 0 Z " fill="#B6BF79" transform="translate(50,69)"/>
<path d="M0 0 C1.5 1.125 1.5 1.125 3 3 C3.1875 6.1875 3.1875 6.1875 3 9 C-4.38461538 9.36923077 -4.38461538 9.36923077 -7.5 7.5 C-7.995 7.005 -8.49 6.51 -9 6 C-8.67 5.34 -8.34 4.68 -8 4 C-6.515 4.99 -6.515 4.99 -5 6 C-3.0103005 6.39013716 -1.00980131 6.73202649 1 7 C0.67 4.69 0.34 2.38 0 0 Z " fill="#E1E9B3" transform="translate(139,74)"/>
<path d="M0 0 C0.66 0.99 1.32 1.98 2 3 C-0.66666667 5 -3.33333333 7 -6 9 C-6.86172797 6.58716168 -7.08724082 5.30534286 -6.375 2.8125 C-5 1 -5 1 -2.375 0.25 C-1.59125 0.1675 -0.8075 0.085 0 0 Z " fill="#DAE2A3" transform="translate(62,75)"/>
<path d="M0 0 C0 1.98 0 3.96 0 6 C-4.67692308 4.52307692 -4.67692308 4.52307692 -6.3125 1.875 C-6.539375 1.25625 -6.76625 0.6375 -7 0 C-4.3333581 -1.33332095 -2.83319697 -0.67102033 0 0 Z " fill="#AA2E30" transform="translate(28,143)"/>
<path d="M0 0 C0.99 0.33 1.98 0.66 3 1 C3.33 1.99 3.66 2.98 4 4 C2.5625 6.1875 2.5625 6.1875 1 8 C-1.03833424 6.7260411 -3.03852126 5.38938077 -5 4 C-5 3.34 -5 2.68 -5 2 C-2.525 2.99 -2.525 2.99 0 4 C0 2.68 0 1.36 0 0 Z " fill="#626644" transform="translate(49,107)"/>
<path d="M0 0 C0 0.66 0 1.32 0 2 C-0.639375 2.12375 -1.27875 2.2475 -1.9375 2.375 C-2.618125 2.58125 -3.29875 2.7875 -4 3 C-4.33 3.66 -4.66 4.32 -5 5 C-4.34 5.33 -3.68 5.66 -3 6 C-3.66 6 -4.32 6 -5 6 C-4.484375 6.598125 -3.96875 7.19625 -3.4375 7.8125 C-2.963125 8.534375 -2.48875 9.25625 -2 10 C-2.33 10.99 -2.66 11.98 -3 13 C-5 12 -5 12 -6.1875 9.75 C-7.11247202 6.61932547 -7.15272183 5.04647913 -6 2 C-3.84898936 0.54286376 -2.59713506 0 0 0 Z " fill="#742527" transform="translate(145,145)"/>
<path d="M0 0 C2.97 0 5.94 0 9 0 C9 0.66 9 1.32 9 2 C5.37 2.66 1.74 3.32 -2 4 C-1.34 2.68 -0.68 1.36 0 0 Z " fill="#A2A96B" transform="translate(146,83)"/>
<path d="M0 0 C2.31 0 4.62 0 7 0 C6 3 6 3 3 5 C1.68 5 0.36 5 -1 5 C-0.67 3.35 -0.34 1.7 0 0 Z " fill="#C2CD77" transform="translate(46,80)"/>
<path d="M0 0 C0.99 0.33 1.98 0.66 3 1 C3.33 3.31 3.66 5.62 4 8 C3.01 8.495 3.01 8.495 2 9 C1.34 8.01 0.68 7.02 0 6 C-1.32 6.33 -2.64 6.66 -4 7 C-3.67 6.01 -3.34 5.02 -3 4 C-2.34 3.67 -1.68 3.34 -1 3 C-0.67 2.01 -0.34 1.02 0 0 Z " fill="#9E2C2D" transform="translate(53,54)"/>
<path d="M0 0 C0.66 1.32 1.32 2.64 2 4 C1.05125 4.45375 0.1025 4.9075 -0.875 5.375 C-4.00313679 6.80238254 -4.00313679 6.80238254 -6 9 C-6 8.34 -6 7.68 -6 7 C-6.66 7 -7.32 7 -8 7 C-7.67 6.01 -7.34 5.02 -7 4 C-7 4.66 -7 5.32 -7 6 C-5.29159719 4.36587557 -4.06546953 3.13093906 -3 1 C-2.01 0.67 -1.02 0.34 0 0 Z " fill="#942E31" transform="translate(20,127)"/>
<path d="M0 0 C0.33 0.66 0.66 1.32 1 2 C0.38511719 2.13277344 -0.22976562 2.26554687 -0.86328125 2.40234375 C-2.07564453 2.66724609 -2.07564453 2.66724609 -3.3125 2.9375 C-4.51326172 3.19853516 -4.51326172 3.19853516 -5.73828125 3.46484375 C-8.145401 3.99886159 -8.145401 3.99886159 -11 5 C-10.625 3.0625 -10.625 3.0625 -10 1 C-6.78548731 -0.60725635 -3.56387464 -0.05748185 0 0 Z " fill="#1F1B1E" transform="translate(126,80)"/>
<path d="M0 0 C0.2475 0.639375 0.495 1.27875 0.75 1.9375 C1.81562433 4.18741541 1.81562433 4.18741541 4.125 4.75 C4.74375 4.8325 5.3625 4.915 6 5 C6 6.32 6 7.64 6 9 C4.1875 8.8125 4.1875 8.8125 2 8 C0.1875 5.625 0.1875 5.625 -1 3 C-0.67 2.01 -0.34 1.02 0 0 Z " fill="#802527" transform="translate(120,157)"/>
<path d="M0 0 C2.375 0.25 2.375 0.25 5 1 C6.3125 3.0625 6.3125 3.0625 7 5 C6.34 5 5.68 5 5 5 C4.67 4.34 4.34 3.68 4 3 C3.67 3.66 3.34 4.32 3 5 C1.35 4.67 -0.3 4.34 -2 4 C-1.34 2.68 -0.68 1.36 0 0 Z " fill="#7A292B" transform="translate(36,146)"/>
<path d="M0 0 C0.66 0 1.32 0 2 0 C2 0.66 2 1.32 2 2 C2.99 2.33 3.98 2.66 5 3 C4.67 4.65 4.34 6.3 4 8 C3.67 6.68 3.34 5.36 3 4 C2.34 4 1.68 4 1 4 C1 5.32 1 6.64 1 8 C0.34 8 -0.32 8 -1 8 C-0.67 5.36 -0.34 2.72 0 0 Z " fill="#494641" transform="translate(82,67)"/>
<path d="M0 0 C0.66 0 1.32 0 2 0 C2 1.98 2 3.96 2 6 C0.02 6 -1.96 6 -4 6 C-4 5.01 -4 4.02 -4 3 C-3.34 2.67 -2.68 2.34 -2 2 C-1.34 2.33 -0.68 2.66 0 3 C0 2.01 0 1.02 0 0 Z " fill="#A73032" transform="translate(76,165)"/>
<path d="M0 0 C2.475 0.495 2.475 0.495 5 1 C3.375 7.75 3.375 7.75 0 10 C0 6.7 0 3.4 0 0 Z M1 4 C2 8 2 8 2 8 Z " fill="#873133" transform="translate(65,159)"/>
<path d="M0 0 C0.33 0 0.66 0 1 0 C1.13277344 0.67546875 1.26554687 1.3509375 1.40234375 2.046875 C1.57894531 2.93890625 1.75554687 3.8309375 1.9375 4.75 C2.11152344 5.63171875 2.28554687 6.5134375 2.46484375 7.421875 C2.92368488 9.63235053 3.43336074 11.81512068 4 14 C3.34 14 2.68 14 2 14 C-0.19290886 11.77062948 -0.98321474 10.58306697 -1.07421875 7.421875 C-0.94660156 6.54015625 -0.81898437 5.6584375 -0.6875 4.75 C-0.56761719 3.85796875 -0.44773437 2.9659375 -0.32421875 2.046875 C-0.21722656 1.37140625 -0.11023438 0.6959375 0 0 Z " fill="#BDC271" transform="translate(105,93)"/>
<path d="M0 0 C0.66 0 1.32 0 2 0 C2 1.65 2 3.3 2 5 C0.35 5.33 -1.3 5.66 -3 6 C-3.66 4.68 -4.32 3.36 -5 2 C-2.525 2.495 -2.525 2.495 0 3 C0 2.01 0 1.02 0 0 Z " fill="#CB2B2E" transform="translate(145,149)"/>
<path d="M0 0 C1.32 0.33 2.64 0.66 4 1 C3.4140625 7.15234375 3.4140625 7.15234375 3 9 C2.01 9.495 2.01 9.495 1 10 C1 8.02 1 6.04 1 4 C0.01 4 -0.98 4 -2 4 C-2 3.34 -2 2.68 -2 2 C-1.34 2 -0.68 2 0 2 C0 1.34 0 0.68 0 0 Z " fill="#7C2527" transform="translate(157,135)"/>
<path d="M0 0 C1.9375 0.375 1.9375 0.375 4 1 C4.33 1.66 4.66 2.32 5 3 C4.34 3.66 3.68 4.32 3 5 C0.6171875 4.9765625 0.6171875 4.9765625 -2.125 4.625 C-3.03507812 4.51414062 -3.94515625 4.40328125 -4.8828125 4.2890625 C-5.93082031 4.14597656 -5.93082031 4.14597656 -7 4 C-7 3.67 -7 3.34 -7 3 C-3.535 2.505 -3.535 2.505 0 2 C0 1.34 0 0.68 0 0 Z " fill="#D3E080" transform="translate(126,75)"/>
<path d="M0 0 C0.66 0 1.32 0 2 0 C2 0.66 2 1.32 2 2 C2.66 2 3.32 2 4 2 C4 3.98 4 5.96 4 8 C3.34 7.67 2.68 7.34 2 7 C2.33 6.01 2.66 5.02 3 4 C2.34 4 1.68 4 1 4 C0.34 5.32 -0.32 6.64 -1 8 C-1.125 2.25 -1.125 2.25 0 0 Z " fill="#45443C" transform="translate(34,67)"/>
<path d="M0 0 C2.475 0.495 2.475 0.495 5 1 C4.01 1.495 4.01 1.495 3 2 C3.66 3.65 4.32 5.3 5 7 C3.68 7.33 2.36 7.66 1 8 C1.66 7.67 2.32 7.34 3 7 C3 6.34 3 5.68 3 5 C2.01 5 1.02 5 0 5 C0 3.35 0 1.7 0 0 Z " fill="#D12E31" transform="translate(49,155)"/>
<path d="M0 0 C0.99 0.33 1.98 0.66 3 1 C3.33 2.98 3.66 4.96 4 7 C4.99 7.33 5.98 7.66 7 8 C7.33 7.01 7.66 6.02 8 5 C8 6.32 8 7.64 8 9 C6.35 9 4.7 9 3 9 C0 3.375 0 3.375 0 0 Z " fill="#E65A56" transform="translate(95,100)"/>
<path d="M0 0 C2.475 0.495 2.475 0.495 5 1 C5 2.98 5 4.96 5 7 C4.01 7 3.02 7 2 7 C1.34 4.69 0.68 2.38 0 0 Z " fill="#DDE6A9" transform="translate(66,97)"/>
<path d="M0 0 C3.84280285 1.24631444 6.07319896 2.36048692 8 6 C7.5703125 8.1328125 7.5703125 8.1328125 7 10 C5.83043409 8.52312468 4.66441854 7.04343707 3.5 5.5625 C2.8503125 4.73878906 2.200625 3.91507812 1.53125 3.06640625 C0 1 0 1 0 0 Z " fill="#211D1F" transform="translate(32,80)"/>
<path d="M0 0 C0.33 0 0.66 0 1 0 C1.66 2.31 2.32 4.62 3 7 C4.65 7.33 6.3 7.66 8 8 C6.71034824 9.37562854 5.37310707 10.70766393 4 12 C3.34 12 2.68 12 2 12 C0.00214565 7.8794254 -0.17835515 4.54805635 0 0 Z " fill="#E43937" transform="translate(95,73)"/>
<path d="M0 0 C2 3 2 3 1.625 6.1875 C1.41875 7.115625 1.2125 8.04375 1 9 C0.34 9 -0.32 9 -1 9 C-1.33 9.99 -1.66 10.98 -2 12 C-2.66 12 -3.32 12 -4 12 C-3.71125 11.319375 -3.4225 10.63875 -3.125 9.9375 C-1.87402645 6.67106907 -0.92552045 3.37153877 0 0 Z " fill="#A62628" transform="translate(112,58)"/>
<path d="M0 0 C0.33 1.32 0.66 2.64 1 4 C1.99 4.33 2.98 4.66 4 5 C4 6.32 4 7.64 4 9 C2.68 9 1.36 9 0 9 C0 6.03 0 3.06 0 0 Z " fill="#D32C2F" transform="translate(89,162)"/>
<path d="M0 0 C1.32 0.33 2.64 0.66 4 1 C4 2.65 4 4.3 4 6 C2.35 6 0.7 6 -1 6 C-1.33 4.68 -1.66 3.36 -2 2 C-1.34 1.67 -0.68 1.34 0 1 C0 0.67 0 0.34 0 0 Z " fill="#C03134" transform="translate(123,155)"/>
<path d="M0 0 C-0.3125 1.9375 -0.3125 1.9375 -1 4 C-1.99 4.33 -2.98 4.66 -4 5 C-4 4.01 -4 3.02 -4 2 C-4.99 1.34 -5.98 0.68 -7 0 C-4.3333581 -1.33332095 -2.83319697 -0.67102033 0 0 Z " fill="#C02A2C" transform="translate(24,132)"/>
<path d="M0 0 C0.66 0 1.32 0 2 0 C3.125 1.75 3.125 1.75 4 4 C3.125 6.25 3.125 6.25 2 8 C0.4375 6.8125 0.4375 6.8125 -1 5 C-0.6875 2.3125 -0.6875 2.3125 0 0 Z " fill="#221F1D" transform="translate(52,111)"/>
<path d="M0 0 C0.99 0.33 1.98 0.66 3 1 C3 2.65 3 4.3 3 6 C1.68 6.33 0.36 6.66 -1 7 C-1 3 -1 3 0 0 Z " fill="#504D47" transform="translate(72,69)"/>
<path d="M0 0 C1.32 0 2.64 0 4 0 C3.67 0.99 3.34 1.98 3 3 C2.34 3 1.68 3 1 3 C0.67 3.66 0.34 4.32 0 5 C-0.99 5 -1.98 5 -3 5 C-3.33 5.66 -3.66 6.32 -4 7 C-3.67 5.02 -3.34 3.04 -3 1 C-2.34 1.33 -1.68 1.66 -1 2 C-0.67 1.34 -0.34 0.68 0 0 Z " fill="#C8282B" transform="translate(76,162)"/>
<path d="M0 0 C0.33 0.66 0.66 1.32 1 2 C1.66 2 2.32 2 3 2 C1.93453047 4.13093906 0.70840281 5.36587557 -1 7 C-1.66 6.67 -2.32 6.34 -3 6 C-2.625 3.5625 -2.625 3.5625 -2 1 C-1.34 0.67 -0.68 0.34 0 0 Z " fill="#CF2E30" transform="translate(109,160)"/>
<path d="M0 0 C0.66 0.33 1.32 0.66 2 1 C1.42655063 3.86724686 1.1385485 4.8614515 -1 7 C-1.99 7 -2.98 7 -4 7 C-3.67 5.68 -3.34 4.36 -3 3 C-2.01 3 -1.02 3 0 3 C0 2.01 0 1.02 0 0 Z " fill="#DA2C30" transform="translate(39,148)"/>
<path d="M0 0 C0.33 0 0.66 0 1 0 C0.979375 0.94875 0.95875 1.8975 0.9375 2.875 C0.77448174 5.90666283 0.77448174 5.90666283 2 8 C0.68 7.67 -0.64 7.34 -2 7 C-2.33 5.68 -2.66 4.36 -3 3 C-2.34 3 -1.68 3 -1 3 C-0.67 2.01 -0.34 1.02 0 0 Z " fill="#973B3D" transform="translate(7,116)"/>
<path d="M0 0 C0 0.66 0 1.32 0 2 C0.99 2.33 1.98 2.66 3 3 C-0.63 3 -4.26 3 -8 3 C-8 2.34 -8 1.68 -8 1 C-2.25 0 -2.25 0 0 0 Z " fill="#3B393A" transform="translate(125,103)"/>
<path d="M0 0 C1.85776765 3.13498292 2.20140476 5.37471432 2 9 C1.34 9 0.68 9 0 9 C-0.33 8.01 -0.66 7.02 -1 6 C-1.66 5.34 -2.32 4.68 -3 4 C-2.01 2.68 -1.02 1.36 0 0 Z " fill="#E83E46" transform="translate(94,88)"/>
<path d="M0 0 C2.475 0.99 2.475 0.99 5 2 C4.01 2.33 3.02 2.66 2 3 C2.33 5.64 2.66 8.28 3 11 C0.60236815 8.60236815 0.65719414 7.66726502 0.375 4.375 C0.30023437 3.55773437 0.22546875 2.74046875 0.1484375 1.8984375 C0.09945313 1.27195312 0.05046875 0.64546875 0 0 Z " fill="#969F60" transform="translate(28,79)"/>
<path d="M0 0 C1.98 0.495 1.98 0.495 4 1 C4 2.65 4 4.3 4 6 C2.35 6.33 0.7 6.66 -1 7 C-0.67 6.01 -0.34 5.02 0 4 C0.66 4.33 1.32 4.66 2 5 C2 4.01 2 3.02 2 2 C1.34 2 0.68 2 0 2 C0 1.34 0 0.68 0 0 Z " fill="#47453B" transform="translate(41,69)"/>
<path d="M0 0 C0.33 0.66 0.66 1.32 1 2 C1.99 1.67 2.98 1.34 4 1 C3.1875 2.9375 3.1875 2.9375 2 5 C1.01 5.33 0.02 5.66 -1 6 C-1.33 6.99 -1.66 7.98 -2 9 C-1.125 2.25 -1.125 2.25 0 0 Z " fill="#D1BF70" transform="translate(99,58)"/>
<path d="M0 0 C0.99 0 1.98 0 3 0 C3.66 2.31 4.32 4.62 5 7 C3.68 7 2.36 7 1 7 C0.67 4.69 0.34 2.38 0 0 Z " fill="#D23133" transform="translate(98,164)"/>
<path d="M0 0 C1.32 0.33 2.64 0.66 4 1 C1.1875 3.0625 1.1875 3.0625 -2 5 C-2.99 4.67 -3.98 4.34 -5 4 C-4.67 3.01 -4.34 2.02 -4 1 C-2.02 1.495 -2.02 1.495 0 2 C0 1.34 0 0.68 0 0 Z " fill="#D32C2F" transform="translate(13,122)"/>
<path d="M0 0 C2.31 0.33 4.62 0.66 7 1 C7 1.99 7 2.98 7 4 C4.69 3.67 2.38 3.34 0 3 C0 2.01 0 1.02 0 0 Z " fill="#D52A2D" transform="translate(172,109)"/>
<path d="M0 0 C1.98 0.99 1.98 0.99 4 2 C4 3.98 4 5.96 4 8 C2 6.25 2 6.25 0 4 C0 2.68 0 1.36 0 0 Z " fill="#1D191B" transform="translate(71,95)"/>
<path d="M0 0 C2.97 0 5.94 0 9 0 C8.67 0.99 8.34 1.98 8 3 C5.69 3 3.38 3 1 3 C0.67 2.01 0.34 1.02 0 0 Z " fill="#322F28" transform="translate(147,80)"/>
<path d="M0 0 C0.2475 0.639375 0.495 1.27875 0.75 1.9375 C1.81562433 4.18741541 1.81562433 4.18741541 4.125 4.75 C4.74375 4.8325 5.3625 4.915 6 5 C3.6875 5.625 3.6875 5.625 1 6 C0.01 5.34 -0.98 4.68 -2 4 C-1.34 2.68 -0.68 1.36 0 0 Z " fill="#882729" transform="translate(109,164)"/>
<path d="M0 0 C2.97 0.99 5.94 1.98 9 3 C8.67 3.99 8.34 4.98 8 6 C5.525 5.01 5.525 5.01 3 4 C3 3.34 3 2.68 3 2 C2.01 2 1.02 2 0 2 C0 1.34 0 0.68 0 0 Z " fill="#A42F31" transform="translate(51,154)"/>
<path d="M0 0 C1.65 0 3.3 0 5 0 C4.67 2.31 4.34 4.62 4 7 C0 2.25 0 2.25 0 0 Z " fill="#B82D30" transform="translate(167,123)"/>
<path d="M0 0 C2.475 0.495 2.475 0.495 5 1 C5.33 2.32 5.66 3.64 6 5 C3.03 4.505 3.03 4.505 0 4 C0 2.68 0 1.36 0 0 Z " fill="#903132" transform="translate(47,159)"/>
<path d="M0 0 C0.99 0 1.98 0 3 0 C3 0.99 3 1.98 3 3 C2.34 3 1.68 3 1 3 C1 3.66 1 4.32 1 5 C0.01 5 -0.98 5 -2 5 C-1.125 1.125 -1.125 1.125 0 0 Z " fill="#B82E31" transform="translate(46,152)"/>
<path d="M0 0 C0.66 0 1.32 0 2 0 C1.67 1.32 1.34 2.64 1 4 C1.99 4 2.98 4 4 4 C4 4.66 4 5.32 4 6 C3.01 6.33 2.02 6.66 1 7 C0.34 6.34 -0.32 5.68 -1 5 C-0.625 2.375 -0.625 2.375 0 0 Z " fill="#CC2D30" transform="translate(169,111)"/>
<path d="M0 0 C0.99 0 1.98 0 3 0 C3.33 1.65 3.66 3.3 4 5 C2.68 5 1.36 5 0 5 C0 3.35 0 1.7 0 0 Z " fill="#2B2725" transform="translate(74,83)"/>
<path d="M0 0 C1.23556641 0.01740234 1.23556641 0.01740234 2.49609375 0.03515625 C3.32238281 0.04417969 4.14867187 0.05320312 5 0.0625 C5.63808594 0.07410156 6.27617187 0.08570312 6.93359375 0.09765625 C4.26692708 1.43098958 1.60026042 2.76432292 -1.06640625 4.09765625 C-1.06640625 3.43765625 -1.06640625 2.77765625 -1.06640625 2.09765625 C-1.72640625 1.76765625 -2.38640625 1.43765625 -3.06640625 1.09765625 C-2.06640625 0.09765625 -2.06640625 0.09765625 0 0 Z " fill="#201C1E" transform="translate(145.06640625,80.90234375)"/>
<path d="M0 0 C1.23556641 0.01740234 1.23556641 0.01740234 2.49609375 0.03515625 C3.32238281 0.04417969 4.14867188 0.05320312 5 0.0625 C5.63808594 0.07410156 6.27617188 0.08570312 6.93359375 0.09765625 C6.93359375 0.42765625 6.93359375 0.75765625 6.93359375 1.09765625 C1.98359375 2.58265625 1.98359375 2.58265625 -3.06640625 4.09765625 C-3.06640625 0.14491523 -3.06640625 0.14491523 0 0 Z " fill="#151018" transform="translate(63.06640625,80.90234375)"/>
<path d="M0 0 C1.32 0 2.64 0 4 0 C4 0.66 4 1.32 4 2 C3.01 2 2.02 2 1 2 C0.67 3.32 0.34 4.64 0 6 C-0.99 5.67 -1.98 5.34 -3 5 C-2.34 5 -1.68 5 -1 5 C-0.67 3.35 -0.34 1.7 0 0 Z " fill="#424130" transform="translate(41,78)"/>
<path d="M0 0 C2.97 0 5.94 0 9 0 C9 0.66 9 1.32 9 2 C5.62182575 2.84454356 3.32534757 3.10844919 0 2 C0 1.34 0 0.68 0 0 Z " fill="#959B60" transform="translate(117,75)"/>
<path d="M0 0 C0.66 0.33 1.32 0.66 2 1 C1.67 2.65 1.34 4.3 1 6 C0.67 4.68 0.34 3.36 0 2 C-0.66 2 -1.32 2 -2 2 C-2.66 3.32 -3.32 4.64 -4 6 C-3.67 4.35 -3.34 2.7 -3 1 C-2.01 0.67 -1.02 0.34 0 0 Z " fill="#3E3B37" transform="translate(50,69)"/>
<path d="M0 0 C2.31 0.33 4.62 0.66 7 1 C6.67 1.99 6.34 2.98 6 4 C5.34 3.67 4.68 3.34 4 3 C2.68 3 1.36 3 0 3 C0 2.01 0 1.02 0 0 Z " fill="#B9C184" transform="translate(26,71)"/>
<path d="M0 0 C1.65 0 3.3 0 5 0 C4.6875 1.9375 4.6875 1.9375 4 4 C3.01 4.33 2.02 4.66 1 5 C0.67 3.35 0.34 1.7 0 0 Z " fill="#A62F32" transform="translate(71,161)"/>
<path d="M0 0 C2.2477975 2.05233685 3.0022242 3.00667261 4 6 C3.67 6.66 3.34 7.32 3 8 C2.01 7.67 1.02 7.34 0 7 C0 4.69 0 2.38 0 0 Z " fill="#632122" transform="translate(131,155)"/>
<path d="M0 0 C1.98 0.66 3.96 1.32 6 2 C5.01 2.33 4.02 2.66 3 3 C2.26676204 5.01508358 2.26676204 5.01508358 2 7 C1.855625 6.401875 1.71125 5.80375 1.5625 5.1875 C1.1127561 3.43849596 0.57107659 1.71322977 0 0 Z " fill="#5F1D1E" transform="translate(52,157)"/>
<path d="M0 0 C3.3 0 6.6 0 10 0 C10 0.33 10 0.66 10 1 C8.9275 1.144375 7.855 1.28875 6.75 1.4375 C4.08337051 1.83749442 1.58600271 2.27591924 -1 3 C-0.67 2.01 -0.34 1.02 0 0 Z " fill="#454533" transform="translate(58,105)"/>
<path d="M0 0 C1.32 1.32 2.64 2.64 4 4 C3.67 4.99 3.34 5.98 3 7 C2.01 6.34 1.02 5.68 0 5 C-0.1875 2.375 -0.1875 2.375 0 0 Z " fill="#3C3B2D" transform="translate(71,99)"/>
<path d="M0 0 C0 0.99 0 1.98 0 3 C-2.64 3 -5.28 3 -8 3 C-7.67 2.34 -7.34 1.68 -7 1 C-4.61370553 0.38812962 -2.46459429 0 0 0 Z " fill="#EFF3D4" transform="translate(54,77)"/>
<path d="M0 0 C-0.99 0.33 -1.98 0.66 -3 1 C-3 1.66 -3 2.32 -3 3 C-4.65 3.33 -6.3 3.66 -8 4 C-8 3.34 -8 2.68 -8 2 C-3.61016949 -1.20338983 -3.61016949 -1.20338983 0 0 Z " fill="#9DA665" transform="translate(143,68)"/>
</svg>
